<?xml version="1.0" encoding="UTF-8" standalone="no"?>
<!DOCTYPE svg PUBLIC "-//W3C//DTD SVG 1.1//EN"
 "http://www.w3.org/Graphics/SVG/1.1/DTD/svg11.dtd">
<!-- Generated by graphviz version 2.38.0 (20140413.2041)
 -->
<!-- Title: %3 Pages: 1 -->
<svg width="561pt" height="892pt"
 viewBox="0.00 0.00 561.19 891.96" xmlns="http://www.w3.org/2000/svg" xmlns:xlink="http://www.w3.org/1999/xlink">
<g id="graph0" class="graph" transform="scale(1 1) rotate(0) translate(4 887.963)">
<title>%3</title>
<polygon fill="#333333" stroke="none" points="-4,4 -4,-887.963 557.195,-887.963 557.195,4 -4,4"/>
<!-- 0 -->
<g id="node1" class="node"><title>0</title>
<ellipse fill="#006699" stroke="white" cx="221.798" cy="-793.963" rx="18" ry="18"/>
<text text-anchor="middle" x="221.798" y="-790.263" font-family="Helvetica,sans-Serif" font-size="14.00" fill="white">0</text>
</g>
<!-- 1 -->
<g id="node2" class="node"><title>1</title>
<ellipse fill="#006699" stroke="white" cx="167.798" cy="-719.165" rx="18" ry="18"/>
<text text-anchor="middle" x="167.798" y="-715.465" font-family="Helvetica,sans-Serif" font-size="14.00" fill="white">1</text>
</g>
<!-- 0&#45;&#45;1 -->
<g id="edge1" class="edge"><title>0&#45;&#45;1</title>
<path fill="none" stroke="white" d="M211.386,-778.927C201.824,-766.036 187.73,-747.035 178.178,-734.158"/>
</g>
<!-- 38 -->
<g id="node39" class="node"><title>38</title>
<ellipse fill="#006699" stroke="white" cx="401.798" cy="-486.376" rx="20.5982" ry="20.5982"/>
<text text-anchor="middle" x="401.798" y="-482.676" font-family="Helvetica,sans-Serif" font-size="14.00" fill="white">38</text>
</g>
<!-- 0&#45;&#45;38 -->
<g id="edge2" class="edge"><title>0&#45;&#45;38</title>
<path fill="none" stroke="white" d="M224.414,-775.983C231.794,-732.837 256.249,-617.177 315.798,-543.174 333.874,-520.711 363.511,-504.333 382.839,-495.335"/>
</g>
<!-- 2 -->
<g id="node3" class="node"><title>2</title>
<ellipse fill="#006699" stroke="white" cx="199.798" cy="-641.569" rx="18" ry="18"/>
<text text-anchor="middle" x="199.798" y="-637.869" font-family="Helvetica,sans-Serif" font-size="14.00" fill="white">2</text>
</g>
<!-- 1&#45;&#45;2 -->
<g id="edge3" class="edge"><title>1&#45;&#45;2</title>
<path fill="none" stroke="white" d="M174.585,-702.133C180.052,-689.217 187.696,-671.158 193.131,-658.318"/>
</g>
<!-- 24 -->
<g id="node25" class="node"><title>24</title>
<ellipse fill="#006699" stroke="white" cx="80.7982" cy="-641.569" rx="20.5982" ry="20.5982"/>
<text text-anchor="middle" x="80.7982" y="-637.869" font-family="Helvetica,sans-Serif" font-size="14.00" fill="white">24</text>
</g>
<!-- 1&#45;&#45;24 -->
<g id="edge4" class="edge"><title>1&#45;&#45;24</title>
<path fill="none" stroke="white" d="M154.585,-706.683C138.898,-693.053 112.78,-670.358 96.1939,-655.946"/>
</g>
<!-- 29 -->
<g id="node30" class="node"><title>29</title>
<ellipse fill="#006699" stroke="white" cx="142.798" cy="-641.569" rx="20.5982" ry="20.5982"/>
<text text-anchor="middle" x="142.798" y="-637.869" font-family="Helvetica,sans-Serif" font-size="14.00" fill="white">29</text>
</g>
<!-- 1&#45;&#45;29 -->
<g id="edge5" class="edge"><title>1&#45;&#45;29</title>
<path fill="none" stroke="white" d="M162.374,-701.762C158.467,-689.95 153.187,-673.983 149.095,-661.608"/>
</g>
<!-- 3 -->
<g id="node4" class="node"><title>3</title>
<ellipse fill="#006699" stroke="white" cx="201.798" cy="-563.972" rx="18" ry="18"/>
<text text-anchor="middle" x="201.798" y="-560.272" font-family="Helvetica,sans-Serif" font-size="14.00" fill="white">3</text>
</g>
<!-- 2&#45;&#45;3 -->
<g id="edge6" class="edge"><title>2&#45;&#45;3</title>
<path fill="none" stroke="white" d="M200.252,-623.415C200.579,-611.043 201.019,-594.415 201.346,-582.058"/>
</g>
<!-- 17 -->
<g id="node18" class="node"><title>17</title>
<ellipse fill="#006699" stroke="white" cx="193.798" cy="-175.991" rx="20.5982" ry="20.5982"/>
<text text-anchor="middle" x="193.798" y="-172.291" font-family="Helvetica,sans-Serif" font-size="14.00" fill="white">17</text>
</g>
<!-- 2&#45;&#45;17 -->
<g id="edge7" class="edge"><title>2&#45;&#45;17</title>
<path fill="none" stroke="white" d="M191.817,-625.307C186.344,-614.297 179.288,-598.937 174.798,-584.77 161.473,-542.729 155.798,-531.478 155.798,-487.376 155.798,-487.376 155.798,-487.376 155.798,-330.183 155.798,-280.312 175.005,-223.923 186.108,-195.49"/>
</g>
<!-- 13 -->
<g id="node14" class="node"><title>13</title>
<ellipse fill="#006699" stroke="white" cx="315.798" cy="-486.376" rx="20.5982" ry="20.5982"/>
<text text-anchor="middle" x="315.798" y="-482.676" font-family="Helvetica,sans-Serif" font-size="14.00" fill="white">13</text>
</g>
<!-- 3&#45;&#45;13 -->
<g id="edge8" class="edge"><title>3&#45;&#45;13</title>
<path fill="none" stroke="white" d="M216.702,-553.089C237.825,-539.082 276.377,-513.517 298.658,-498.742"/>
</g>
<!-- 3&#45;&#45;17 -->
<g id="edge9" class="edge"><title>3&#45;&#45;17</title>
<path fill="none" stroke="white" d="M200.331,-545.986C198.021,-517.739 193.798,-459.316 193.798,-409.78 193.798,-409.78 193.798,-409.78 193.798,-330.183 193.798,-282.311 193.798,-226.023 193.798,-196.821"/>
</g>
<!-- 4 -->
<g id="node5" class="node"><title>4</title>
<ellipse fill="red" stroke="white" cx="530.798" cy="-865.963" rx="18" ry="18"/>
<text text-anchor="middle" x="530.798" y="-862.263" font-family="Helvetica,sans-Serif" font-size="14.00" fill="white">4</text>
</g>
<!-- 5 -->
<g id="node6" class="node"><title>5</title>
<ellipse fill="#006699" stroke="white" cx="477.798" cy="-793.963" rx="18" ry="18"/>
<text text-anchor="middle" x="477.798" y="-790.263" font-family="Helvetica,sans-Serif" font-size="14.00" fill="white">5</text>
</g>
<!-- 4&#45;&#45;5 -->
<g id="edge10" class="edge"><title>4&#45;&#45;5</title>
<path fill="none" stroke="white" d="M520.327,-851.133C511.035,-838.861 497.533,-821.027 488.247,-808.764"/>
</g>
<!-- 7 -->
<g id="node8" class="node"><title>7</title>
<ellipse fill="#006699" stroke="white" cx="451.798" cy="-641.569" rx="18" ry="18"/>
<text text-anchor="middle" x="451.798" y="-637.869" font-family="Helvetica,sans-Serif" font-size="14.00" fill="white">7</text>
</g>
<!-- 4&#45;&#45;7 -->
<g id="edge11" class="edge"><title>4&#45;&#45;7</title>
<path fill="none" stroke="white" d="M536.883,-848.57C547.445,-817.191 565.604,-747.404 538.798,-698.367 523.994,-671.286 489.81,-655.407 468.97,-647.902"/>
</g>
<!-- 6 -->
<g id="node7" class="node"><title>6</title>
<ellipse fill="#006699" stroke="white" cx="451.798" cy="-719.165" rx="18" ry="18"/>
<text text-anchor="middle" x="451.798" y="-715.465" font-family="Helvetica,sans-Serif" font-size="14.00" fill="white">6</text>
</g>
<!-- 5&#45;&#45;6 -->
<g id="edge12" class="edge"><title>5&#45;&#45;6</title>
<path fill="none" stroke="white" d="M472.028,-776.807C467.719,-764.743 461.857,-748.329 457.552,-736.276"/>
</g>
<!-- 10 -->
<g id="node11" class="node"><title>10</title>
<ellipse fill="#006699" stroke="white" cx="394.798" cy="-719.165" rx="20.5982" ry="20.5982"/>
<text text-anchor="middle" x="394.798" y="-715.465" font-family="Helvetica,sans-Serif" font-size="14.00" fill="white">10</text>
</g>
<!-- 5&#45;&#45;10 -->
<g id="edge13" class="edge"><title>5&#45;&#45;10</title>
<path fill="none" stroke="white" d="M464.463,-781.267C449.616,-768.245 425.662,-747.235 410.073,-733.562"/>
</g>
<!-- 30 -->
<g id="node31" class="node"><title>30</title>
<ellipse fill="#006699" stroke="white" cx="508.798" cy="-719.165" rx="20.5982" ry="20.5982"/>
<text text-anchor="middle" x="508.798" y="-715.465" font-family="Helvetica,sans-Serif" font-size="14.00" fill="white">30</text>
</g>
<!-- 5&#45;&#45;30 -->
<g id="edge14" class="edge"><title>5&#45;&#45;30</title>
<path fill="none" stroke="white" d="M484.525,-777.167C489.368,-765.793 495.916,-750.416 500.991,-738.5"/>
</g>
<!-- 6&#45;&#45;7 -->
<g id="edge15" class="edge"><title>6&#45;&#45;7</title>
<path fill="none" stroke="white" d="M451.798,-701.011C451.798,-688.639 451.798,-672.011 451.798,-659.655"/>
</g>
<!-- 8 -->
<g id="node9" class="node"><title>8</title>
<ellipse fill="#006699" stroke="white" cx="426.798" cy="-563.972" rx="18" ry="18"/>
<text text-anchor="middle" x="426.798" y="-560.272" font-family="Helvetica,sans-Serif" font-size="14.00" fill="white">8</text>
</g>
<!-- 7&#45;&#45;8 -->
<g id="edge16" class="edge"><title>7&#45;&#45;8</title>
<path fill="none" stroke="white" d="M446.374,-624.165C442.18,-611.485 436.403,-594.016 432.212,-581.344"/>
</g>
<!-- 8&#45;&#45;38 -->
<g id="edge17" class="edge"><title>8&#45;&#45;38</title>
<path fill="none" stroke="white" d="M421.374,-546.569C417.467,-534.758 412.187,-518.79 408.095,-506.416"/>
</g>
<!-- 9 -->
<g id="node10" class="node"><title>9</title>
<ellipse fill="#006699" stroke="white" cx="345.798" cy="-793.963" rx="18" ry="18"/>
<text text-anchor="middle" x="345.798" y="-790.263" font-family="Helvetica,sans-Serif" font-size="14.00" fill="white">9</text>
</g>
<!-- 9&#45;&#45;10 -->
<g id="edge18" class="edge"><title>9&#45;&#45;10</title>
<path fill="none" stroke="white" d="M355.479,-778.581C363.567,-766.564 375.107,-749.419 383.594,-736.811"/>
</g>
<!-- 12 -->
<g id="node13" class="node"><title>12</title>
<ellipse fill="#006699" stroke="white" cx="345.798" cy="-563.972" rx="20.5982" ry="20.5982"/>
<text text-anchor="middle" x="345.798" y="-560.272" font-family="Helvetica,sans-Serif" font-size="14.00" fill="white">12</text>
</g>
<!-- 9&#45;&#45;12 -->
<g id="edge19" class="edge"><title>9&#45;&#45;12</title>
<path fill="none" stroke="white" d="M345.798,-775.827C345.798,-734.403 345.798,-629.009 345.798,-584.881"/>
</g>
<!-- 31 -->
<g id="node32" class="node"><title>31</title>
<ellipse fill="#006699" stroke="white" cx="296.798" cy="-719.165" rx="20.5982" ry="20.5982"/>
<text text-anchor="middle" x="296.798" y="-715.465" font-family="Helvetica,sans-Serif" font-size="14.00" fill="white">31</text>
</g>
<!-- 9&#45;&#45;31 -->
<g id="edge20" class="edge"><title>9&#45;&#45;31</title>
<path fill="none" stroke="white" d="M336.117,-778.581C328.029,-766.564 316.489,-749.419 308.002,-736.811"/>
</g>
<!-- 11 -->
<g id="node12" class="node"><title>11</title>
<ellipse fill="#006699" stroke="white" cx="394.798" cy="-641.569" rx="20.5982" ry="20.5982"/>
<text text-anchor="middle" x="394.798" y="-637.869" font-family="Helvetica,sans-Serif" font-size="14.00" fill="white">11</text>
</g>
<!-- 10&#45;&#45;11 -->
<g id="edge21" class="edge"><title>10&#45;&#45;11</title>
<path fill="none" stroke="white" d="M394.798,-698.303C394.798,-687.279 394.798,-673.605 394.798,-662.56"/>
</g>
<!-- 11&#45;&#45;12 -->
<g id="edge22" class="edge"><title>11&#45;&#45;12</title>
<path fill="none" stroke="white" d="M383.923,-623.791C375.86,-611.351 364.909,-594.456 356.812,-581.964"/>
</g>
<!-- 12&#45;&#45;13 -->
<g id="edge23" class="edge"><title>12&#45;&#45;13</title>
<path fill="none" stroke="white" d="M338.382,-544.286C333.732,-532.568 327.762,-517.525 323.129,-505.848"/>
</g>
<!-- 14 -->
<g id="node15" class="node"><title>14</title>
<ellipse fill="#006699" stroke="white" cx="315.798" cy="-408.78" rx="20.5982" ry="20.5982"/>
<text text-anchor="middle" x="315.798" y="-405.08" font-family="Helvetica,sans-Serif" font-size="14.00" fill="white">14</text>
</g>
<!-- 13&#45;&#45;14 -->
<g id="edge24" class="edge"><title>13&#45;&#45;14</title>
<path fill="none" stroke="white" d="M315.798,-465.514C315.798,-454.49 315.798,-440.816 315.798,-429.772"/>
</g>
<!-- 15 -->
<g id="node16" class="node"><title>15</title>
<ellipse fill="#006699" stroke="white" cx="315.798" cy="-331.183" rx="20.5982" ry="20.5982"/>
<text text-anchor="middle" x="315.798" y="-327.483" font-family="Helvetica,sans-Serif" font-size="14.00" fill="white">15</text>
</g>
<!-- 14&#45;&#45;15 -->
<g id="edge25" class="edge"><title>14&#45;&#45;15</title>
<path fill="none" stroke="white" d="M315.798,-387.918C315.798,-376.894 315.798,-363.22 315.798,-352.175"/>
</g>
<!-- 16 -->
<g id="node17" class="node"><title>16</title>
<ellipse fill="red" stroke="white" cx="242.798" cy="-253.587" rx="20.5982" ry="20.5982"/>
<text text-anchor="middle" x="242.798" y="-249.887" font-family="Helvetica,sans-Serif" font-size="14.00" fill="white">16</text>
</g>
<!-- 15&#45;&#45;16 -->
<g id="edge26" class="edge"><title>15&#45;&#45;16</title>
<path fill="none" stroke="white" d="M301.723,-315.608C288.796,-302.221 269.743,-282.49 256.83,-269.118"/>
</g>
<!-- 18 -->
<g id="node19" class="node"><title>18</title>
<ellipse fill="#006699" stroke="white" cx="340.798" cy="-253.587" rx="20.5982" ry="20.5982"/>
<text text-anchor="middle" x="340.798" y="-249.887" font-family="Helvetica,sans-Serif" font-size="14.00" fill="white">18</text>
</g>
<!-- 15&#45;&#45;18 -->
<g id="edge27" class="edge"><title>15&#45;&#45;18</title>
<path fill="none" stroke="white" d="M322.107,-311.107C325.897,-299.647 330.702,-285.116 334.492,-273.657"/>
</g>
<!-- 20 -->
<g id="node21" class="node"><title>20</title>
<ellipse fill="#006699" stroke="white" cx="430.798" cy="-253.587" rx="20.5982" ry="20.5982"/>
<text text-anchor="middle" x="430.798" y="-249.887" font-family="Helvetica,sans-Serif" font-size="14.00" fill="white">20</text>
</g>
<!-- 15&#45;&#45;20 -->
<g id="edge28" class="edge"><title>15&#45;&#45;20</title>
<path fill="none" stroke="white" d="M332.767,-319.029C354.509,-304.736 391.984,-280.102 413.76,-265.787"/>
</g>
<!-- 23 -->
<g id="node24" class="node"><title>23</title>
<ellipse fill="#006699" stroke="white" cx="316.798" cy="-20.7982" rx="20.5982" ry="20.5982"/>
<text text-anchor="middle" x="316.798" y="-17.0982" font-family="Helvetica,sans-Serif" font-size="14.00" fill="white">23</text>
</g>
<!-- 15&#45;&#45;23 -->
<g id="edge29" class="edge"><title>15&#45;&#45;23</title>
<path fill="none" stroke="white" d="M313.584,-310.328C312.508,-299.684 311.333,-286.336 310.798,-274.385 306.891,-187.011 306.116,-164.933 310.798,-77.5963 311.44,-65.6296 312.85,-52.2811 314.142,-41.6412"/>
</g>
<!-- 16&#45;&#45;17 -->
<g id="edge30" class="edge"><title>16&#45;&#45;17</title>
<path fill="none" stroke="white" d="M231.923,-235.81C223.86,-223.369 212.909,-206.474 204.812,-193.983"/>
</g>
<!-- 26 -->
<g id="node27" class="node"><title>26</title>
<ellipse fill="#006699" stroke="white" cx="125.798" cy="-175.991" rx="20.5982" ry="20.5982"/>
<text text-anchor="middle" x="125.798" y="-172.291" font-family="Helvetica,sans-Serif" font-size="14.00" fill="white">26</text>
</g>
<!-- 16&#45;&#45;26 -->
<g id="edge31" class="edge"><title>16&#45;&#45;26</title>
<path fill="none" stroke="white" d="M225.785,-241.595C203.603,-227.262 165.024,-202.335 142.831,-187.996"/>
</g>
<!-- 19 -->
<g id="node20" class="node"><title>19</title>
<ellipse fill="#006699" stroke="white" cx="340.798" cy="-175.991" rx="20.5982" ry="20.5982"/>
<text text-anchor="middle" x="340.798" y="-172.291" font-family="Helvetica,sans-Serif" font-size="14.00" fill="white">19</text>
</g>
<!-- 18&#45;&#45;19 -->
<g id="edge32" class="edge"><title>18&#45;&#45;19</title>
<path fill="none" stroke="white" d="M340.798,-232.725C340.798,-221.701 340.798,-208.027 340.798,-196.983"/>
</g>
<!-- 32 -->
<g id="node33" class="node"><title>32</title>
<ellipse fill="#006699" stroke="white" cx="400.798" cy="-175.991" rx="20.5982" ry="20.5982"/>
<text text-anchor="middle" x="400.798" y="-172.291" font-family="Helvetica,sans-Serif" font-size="14.00" fill="white">32</text>
</g>
<!-- 18&#45;&#45;32 -->
<g id="edge33" class="edge"><title>18&#45;&#45;32</title>
<path fill="none" stroke="white" d="M353.523,-236.555C363.774,-223.639 378.107,-205.58 388.298,-192.74"/>
</g>
<!-- 33 -->
<g id="node34" class="node"><title>33</title>
<ellipse fill="#006699" stroke="white" cx="340.798" cy="-98.3945" rx="20.5982" ry="20.5982"/>
<text text-anchor="middle" x="340.798" y="-94.6945" font-family="Helvetica,sans-Serif" font-size="14.00" fill="white">33</text>
</g>
<!-- 19&#45;&#45;33 -->
<g id="edge34" class="edge"><title>19&#45;&#45;33</title>
<path fill="none" stroke="white" d="M340.798,-155.129C340.798,-144.105 340.798,-130.431 340.798,-119.386"/>
</g>
<!-- 21 -->
<g id="node22" class="node"><title>21</title>
<ellipse fill="#006699" stroke="white" cx="460.798" cy="-175.991" rx="20.5982" ry="20.5982"/>
<text text-anchor="middle" x="460.798" y="-172.291" font-family="Helvetica,sans-Serif" font-size="14.00" fill="white">21</text>
</g>
<!-- 20&#45;&#45;21 -->
<g id="edge35" class="edge"><title>20&#45;&#45;21</title>
<path fill="none" stroke="white" d="M438.214,-233.9C442.864,-222.183 448.834,-207.139 453.468,-195.463"/>
</g>
<!-- 22 -->
<g id="node23" class="node"><title>22</title>
<ellipse fill="#006699" stroke="white" cx="400.798" cy="-98.3945" rx="20.5982" ry="20.5982"/>
<text text-anchor="middle" x="400.798" y="-94.6945" font-family="Helvetica,sans-Serif" font-size="14.00" fill="white">22</text>
</g>
<!-- 21&#45;&#45;22 -->
<g id="edge36" class="edge"><title>21&#45;&#45;22</title>
<path fill="none" stroke="white" d="M448.074,-158.959C437.823,-146.043 423.489,-127.984 413.299,-115.144"/>
</g>
<!-- 34 -->
<g id="node35" class="node"><title>34</title>
<ellipse fill="#006699" stroke="white" cx="460.798" cy="-98.3945" rx="20.5982" ry="20.5982"/>
<text text-anchor="middle" x="460.798" y="-94.6945" font-family="Helvetica,sans-Serif" font-size="14.00" fill="white">34</text>
</g>
<!-- 21&#45;&#45;34 -->
<g id="edge37" class="edge"><title>21&#45;&#45;34</title>
<path fill="none" stroke="white" d="M460.798,-155.129C460.798,-144.105 460.798,-130.431 460.798,-119.386"/>
</g>
<!-- 22&#45;&#45;23 -->
<g id="edge38" class="edge"><title>22&#45;&#45;23</title>
<path fill="none" stroke="white" d="M385.781,-83.8794C370.585,-70.2043 347.219,-49.1754 331.969,-35.4511"/>
</g>
<!-- 35 -->
<g id="node36" class="node"><title>35</title>
<ellipse fill="#006699" stroke="white" cx="400.798" cy="-20.7982" rx="20.5982" ry="20.5982"/>
<text text-anchor="middle" x="400.798" y="-17.0982" font-family="Helvetica,sans-Serif" font-size="14.00" fill="white">35</text>
</g>
<!-- 22&#45;&#45;35 -->
<g id="edge39" class="edge"><title>22&#45;&#45;35</title>
<path fill="none" stroke="white" d="M400.798,-77.5324C400.798,-66.5085 400.798,-52.8347 400.798,-41.79"/>
</g>
<!-- 25 -->
<g id="node26" class="node"><title>25</title>
<ellipse fill="#006699" stroke="white" cx="80.7982" cy="-563.972" rx="20.5982" ry="20.5982"/>
<text text-anchor="middle" x="80.7982" y="-560.272" font-family="Helvetica,sans-Serif" font-size="14.00" fill="white">25</text>
</g>
<!-- 24&#45;&#45;25 -->
<g id="edge40" class="edge"><title>24&#45;&#45;25</title>
<path fill="none" stroke="white" d="M80.7982,-620.707C80.7982,-609.683 80.7982,-596.009 80.7982,-584.964"/>
</g>
<!-- 36 -->
<g id="node37" class="node"><title>36</title>
<ellipse fill="#006699" stroke="white" cx="20.7982" cy="-563.972" rx="20.5982" ry="20.5982"/>
<text text-anchor="middle" x="20.7982" y="-560.272" font-family="Helvetica,sans-Serif" font-size="14.00" fill="white">36</text>
</g>
<!-- 24&#45;&#45;36 -->
<g id="edge41" class="edge"><title>24&#45;&#45;36</title>
<path fill="none" stroke="white" d="M68.0737,-624.537C57.8227,-611.621 43.4894,-593.562 33.2985,-580.722"/>
</g>
<!-- 25&#45;&#45;26 -->
<g id="edge42" class="edge"><title>25&#45;&#45;26</title>
<path fill="none" stroke="white" d="M88.2857,-544.454C99.0972,-515.997 117.798,-459.576 117.798,-409.78 117.798,-409.78 117.798,-409.78 117.798,-330.183 117.798,-282.245 121.753,-225.984 124.102,-196.804"/>
</g>
<!-- 27 -->
<g id="node28" class="node"><title>27</title>
<ellipse fill="#006699" stroke="white" cx="30.7982" cy="-486.376" rx="20.5982" ry="20.5982"/>
<text text-anchor="middle" x="30.7982" y="-482.676" font-family="Helvetica,sans-Serif" font-size="14.00" fill="white">27</text>
</g>
<!-- 25&#45;&#45;27 -->
<g id="edge43" class="edge"><title>25&#45;&#45;27</title>
<path fill="none" stroke="white" d="M69.7015,-546.195C61.4157,-533.667 50.1421,-516.623 41.8638,-504.106"/>
</g>
<!-- 28 -->
<g id="node29" class="node"><title>28</title>
<ellipse fill="#006699" stroke="white" cx="49.7982" cy="-408.78" rx="20.5982" ry="20.5982"/>
<text text-anchor="middle" x="49.7982" y="-405.08" font-family="Helvetica,sans-Serif" font-size="14.00" fill="white">28</text>
</g>
<!-- 25&#45;&#45;28 -->
<g id="edge44" class="edge"><title>25&#45;&#45;28</title>
<path fill="none" stroke="white" d="M76.8089,-543.259C70.8565,-513.844 59.7156,-458.789 53.7721,-429.418"/>
</g>
<!-- 27&#45;&#45;28 -->
<g id="edge45" class="edge"><title>27&#45;&#45;28</title>
<path fill="none" stroke="white" d="M35.6911,-465.908C38.5279,-454.621 42.0878,-440.457 44.9218,-429.182"/>
</g>
<!-- 37 -->
<g id="node38" class="node"><title>37</title>
<ellipse fill="#006699" stroke="white" cx="49.7982" cy="-331.183" rx="20.5982" ry="20.5982"/>
<text text-anchor="middle" x="49.7982" y="-327.483" font-family="Helvetica,sans-Serif" font-size="14.00" fill="white">37</text>
</g>
<!-- 28&#45;&#45;37 -->
<g id="edge46" class="edge"><title>28&#45;&#45;37</title>
<path fill="none" stroke="white" d="M49.7982,-387.918C49.7982,-376.894 49.7982,-363.22 49.7982,-352.175"/>
</g>
</g>
</svg>
