<?xml version="1.0" encoding="UTF-8" standalone="no"?>
<!DOCTYPE svg PUBLIC "-//W3C//DTD SVG 1.1//EN"
 "http://www.w3.org/Graphics/SVG/1.1/DTD/svg11.dtd">
<!-- Generated by graphviz version 2.38.0 (20140413.2041)
 -->
<!-- Title: %3 Pages: 1 -->
<svg width="657pt" height="665pt"
 viewBox="0.00 0.00 657.23 664.77" xmlns="http://www.w3.org/2000/svg" xmlns:xlink="http://www.w3.org/1999/xlink">
<g id="graph0" class="graph" transform="scale(1 1) rotate(0) translate(4 660.77)">
<title>%3</title>
<polygon fill="#333333" stroke="none" points="-4,4 -4,-660.77 653.227,-660.77 653.227,4 -4,4"/>
<!-- 0 -->
<g id="node1" class="node"><title>0</title>
<ellipse fill="#006699" stroke="white" cx="75" cy="-563.972" rx="18" ry="18"/>
<text text-anchor="middle" x="75" y="-560.272" font-family="Helvetica,sans-Serif" font-size="14.00" fill="white">0</text>
</g>
<!-- 1 -->
<g id="node2" class="node"><title>1</title>
<ellipse fill="#006699" stroke="white" cx="75" cy="-486.376" rx="18" ry="18"/>
<text text-anchor="middle" x="75" y="-482.676" font-family="Helvetica,sans-Serif" font-size="14.00" fill="white">1</text>
</g>
<!-- 0&#45;&#45;1 -->
<g id="edge1" class="edge"><title>0&#45;&#45;1</title>
<path fill="none" stroke="white" d="M75,-545.818C75,-533.447 75,-516.818 75,-504.462"/>
</g>
<!-- 2 -->
<g id="node3" class="node"><title>2</title>
<ellipse fill="#006699" stroke="white" cx="132" cy="-408.78" rx="18" ry="18"/>
<text text-anchor="middle" x="132" y="-405.08" font-family="Helvetica,sans-Serif" font-size="14.00" fill="white">2</text>
</g>
<!-- 1&#45;&#45;2 -->
<g id="edge2" class="edge"><title>1&#45;&#45;2</title>
<path fill="none" stroke="white" d="M85.4547,-471.51C95.7393,-457.87 111.35,-437.167 121.612,-423.557"/>
</g>
<!-- 3 -->
<g id="node4" class="node"><title>3</title>
<ellipse fill="#006699" stroke="white" cx="18" cy="-408.78" rx="18" ry="18"/>
<text text-anchor="middle" x="18" y="-405.08" font-family="Helvetica,sans-Serif" font-size="14.00" fill="white">3</text>
</g>
<!-- 1&#45;&#45;3 -->
<g id="edge3" class="edge"><title>1&#45;&#45;3</title>
<path fill="none" stroke="white" d="M64.5453,-471.51C54.2607,-457.87 38.6501,-437.167 28.3884,-423.557"/>
</g>
<!-- 29 -->
<g id="node30" class="node"><title>29</title>
<ellipse fill="#006699" stroke="white" cx="113" cy="-331.183" rx="20.5982" ry="20.5982"/>
<text text-anchor="middle" x="113" y="-327.483" font-family="Helvetica,sans-Serif" font-size="14.00" fill="white">29</text>
</g>
<!-- 2&#45;&#45;29 -->
<g id="edge4" class="edge"><title>2&#45;&#45;29</title>
<path fill="none" stroke="white" d="M127.783,-391.002C124.853,-379.345 120.94,-363.776 117.876,-351.584"/>
</g>
<!-- 36 -->
<g id="node37" class="node"><title>36</title>
<ellipse fill="#006699" stroke="white" cx="173" cy="-331.183" rx="20.5982" ry="20.5982"/>
<text text-anchor="middle" x="173" y="-327.483" font-family="Helvetica,sans-Serif" font-size="14.00" fill="white">36</text>
</g>
<!-- 2&#45;&#45;36 -->
<g id="edge5" class="edge"><title>2&#45;&#45;36</title>
<path fill="none" stroke="white" d="M140.297,-392.482C146.989,-380.143 156.409,-362.774 163.421,-349.845"/>
</g>
<!-- 4 -->
<g id="node5" class="node"><title>4</title>
<ellipse fill="#006699" stroke="white" cx="435" cy="-563.972" rx="18" ry="18"/>
<text text-anchor="middle" x="435" y="-560.272" font-family="Helvetica,sans-Serif" font-size="14.00" fill="white">4</text>
</g>
<!-- 27 -->
<g id="node28" class="node"><title>27</title>
<ellipse fill="#006699" stroke="white" cx="492" cy="-486.376" rx="20.5982" ry="20.5982"/>
<text text-anchor="middle" x="492" y="-482.676" font-family="Helvetica,sans-Serif" font-size="14.00" fill="white">27</text>
</g>
<!-- 4&#45;&#45;27 -->
<g id="edge6" class="edge"><title>4&#45;&#45;27</title>
<path fill="none" stroke="white" d="M445.455,-549.107C455.161,-536.234 469.611,-517.07 479.831,-503.515"/>
</g>
<!-- 31 -->
<g id="node32" class="node"><title>31</title>
<ellipse fill="#006699" stroke="white" cx="446" cy="-408.78" rx="20.5982" ry="20.5982"/>
<text text-anchor="middle" x="446" y="-405.08" font-family="Helvetica,sans-Serif" font-size="14.00" fill="white">31</text>
</g>
<!-- 4&#45;&#45;31 -->
<g id="edge7" class="edge"><title>4&#45;&#45;31</title>
<path fill="none" stroke="white" d="M436.219,-545.993C438.267,-517.481 442.385,-460.127 444.567,-429.736"/>
</g>
<!-- 5 -->
<g id="node6" class="node"><title>5</title>
<ellipse fill="#006699" stroke="white" cx="397" cy="-486.376" rx="18" ry="18"/>
<text text-anchor="middle" x="397" y="-482.676" font-family="Helvetica,sans-Serif" font-size="14.00" fill="white">5</text>
</g>
<!-- 14 -->
<g id="node15" class="node"><title>14</title>
<ellipse fill="#006699" stroke="white" cx="348" cy="-408.78" rx="20.5982" ry="20.5982"/>
<text text-anchor="middle" x="348" y="-405.08" font-family="Helvetica,sans-Serif" font-size="14.00" fill="white">14</text>
</g>
<!-- 5&#45;&#45;14 -->
<g id="edge8" class="edge"><title>5&#45;&#45;14</title>
<path fill="none" stroke="white" d="M387.552,-470.8C379.376,-458.186 367.548,-439.938 358.958,-426.686"/>
</g>
<!-- 32 -->
<g id="node33" class="node"><title>32</title>
<ellipse fill="#006699" stroke="white" cx="397" cy="-331.183" rx="20.5982" ry="20.5982"/>
<text text-anchor="middle" x="397" y="-327.483" font-family="Helvetica,sans-Serif" font-size="14.00" fill="white">32</text>
</g>
<!-- 5&#45;&#45;32 -->
<g id="edge9" class="edge"><title>5&#45;&#45;32</title>
<path fill="none" stroke="white" d="M397,-468.101C397,-439.461 397,-382.313 397,-352.05"/>
</g>
<!-- 6 -->
<g id="node7" class="node"><title>6</title>
<ellipse fill="#006699" stroke="white" cx="612" cy="-638.77" rx="18" ry="18"/>
<text text-anchor="middle" x="612" y="-635.07" font-family="Helvetica,sans-Serif" font-size="14.00" fill="white">6</text>
</g>
<!-- 16 -->
<g id="node17" class="node"><title>16</title>
<ellipse fill="#006699" stroke="white" cx="492" cy="-563.972" rx="20.5982" ry="20.5982"/>
<text text-anchor="middle" x="492" y="-560.272" font-family="Helvetica,sans-Serif" font-size="14.00" fill="white">16</text>
</g>
<!-- 6&#45;&#45;16 -->
<g id="edge10" class="edge"><title>6&#45;&#45;16</title>
<path fill="none" stroke="white" d="M596.569,-629.004C578.529,-618.681 547.846,-600.895 522,-584.77 517.764,-582.128 513.246,-579.204 509.036,-576.432"/>
</g>
<!-- 19 -->
<g id="node20" class="node"><title>19</title>
<ellipse fill="#006699" stroke="white" cx="612" cy="-563.972" rx="20.5982" ry="20.5982"/>
<text text-anchor="middle" x="612" y="-560.272" font-family="Helvetica,sans-Serif" font-size="14.00" fill="white">19</text>
</g>
<!-- 6&#45;&#45;19 -->
<g id="edge11" class="edge"><title>6&#45;&#45;19</title>
<path fill="none" stroke="white" d="M612,-620.518C612,-609.839 612,-596.085 612,-584.935"/>
</g>
<!-- 33 -->
<g id="node34" class="node"><title>33</title>
<ellipse fill="#006699" stroke="white" cx="601" cy="-331.183" rx="20.5982" ry="20.5982"/>
<text text-anchor="middle" x="601" y="-327.483" font-family="Helvetica,sans-Serif" font-size="14.00" fill="white">33</text>
</g>
<!-- 6&#45;&#45;33 -->
<g id="edge12" class="edge"><title>6&#45;&#45;33</title>
<path fill="none" stroke="white" d="M622.575,-623.803C629.611,-613.594 638.23,-599.085 642,-584.77 664.687,-498.634 626.687,-392.484 609.144,-350.506"/>
</g>
<!-- 7 -->
<g id="node8" class="node"><title>7</title>
<ellipse fill="#006699" stroke="white" cx="335" cy="-638.77" rx="18" ry="18"/>
<text text-anchor="middle" x="335" y="-635.07" font-family="Helvetica,sans-Serif" font-size="14.00" fill="white">7</text>
</g>
<!-- 7&#45;&#45;16 -->
<g id="edge13" class="edge"><title>7&#45;&#45;16</title>
<path fill="none" stroke="white" d="M351.897,-631.875C376.676,-622.975 424.042,-604.985 462,-584.77 466.406,-582.424 470.988,-579.611 475.206,-576.851"/>
</g>
<!-- 7&#45;&#45;36 -->
<g id="edge14" class="edge"><title>7&#45;&#45;36</title>
<path fill="none" stroke="white" d="M316.654,-636.626C286.28,-633.655 226.022,-622.993 197,-584.77 143.192,-513.904 159.357,-397.608 168.571,-351.699"/>
</g>
<!-- 8 -->
<g id="node9" class="node"><title>8</title>
<ellipse fill="#006699" stroke="white" cx="338" cy="-563.972" rx="18" ry="18"/>
<text text-anchor="middle" x="338" y="-560.272" font-family="Helvetica,sans-Serif" font-size="14.00" fill="white">8</text>
</g>
<!-- 13 -->
<g id="node14" class="node"><title>13</title>
<ellipse fill="#006699" stroke="white" cx="280" cy="-486.376" rx="20.5982" ry="20.5982"/>
<text text-anchor="middle" x="280" y="-482.676" font-family="Helvetica,sans-Serif" font-size="14.00" fill="white">13</text>
</g>
<!-- 8&#45;&#45;13 -->
<g id="edge15" class="edge"><title>8&#45;&#45;13</title>
<path fill="none" stroke="white" d="M327.362,-549.107C317.42,-536.149 302.587,-516.816 292.176,-503.247"/>
</g>
<!-- 9 -->
<g id="node10" class="node"><title>9</title>
<ellipse fill="#006699" stroke="white" cx="224" cy="-563.972" rx="18" ry="18"/>
<text text-anchor="middle" x="224" y="-560.272" font-family="Helvetica,sans-Serif" font-size="14.00" fill="white">9</text>
</g>
<!-- 9&#45;&#45;13 -->
<g id="edge16" class="edge"><title>9&#45;&#45;13</title>
<path fill="none" stroke="white" d="M234.271,-549.107C243.807,-536.234 258.003,-517.07 268.045,-503.515"/>
</g>
<!-- 10 -->
<g id="node11" class="node"><title>10</title>
<ellipse fill="#006699" stroke="white" cx="281" cy="-563.972" rx="20.5982" ry="20.5982"/>
<text text-anchor="middle" x="281" y="-560.272" font-family="Helvetica,sans-Serif" font-size="14.00" fill="white">10</text>
</g>
<!-- 10&#45;&#45;13 -->
<g id="edge17" class="edge"><title>10&#45;&#45;13</title>
<path fill="none" stroke="white" d="M280.737,-543.11C280.591,-532.086 280.411,-518.413 280.264,-507.368"/>
</g>
<!-- 11 -->
<g id="node12" class="node"><title>11</title>
<ellipse fill="#006699" stroke="white" cx="340" cy="-486.376" rx="20.5982" ry="20.5982"/>
<text text-anchor="middle" x="340" y="-482.676" font-family="Helvetica,sans-Serif" font-size="14.00" fill="white">11</text>
</g>
<!-- 11&#45;&#45;14 -->
<g id="edge18" class="edge"><title>11&#45;&#45;14</title>
<path fill="none" stroke="white" d="M342.102,-465.514C343.278,-454.403 344.739,-440.599 345.912,-429.509"/>
</g>
<!-- 12 -->
<g id="node13" class="node"><title>12</title>
<ellipse fill="#006699" stroke="white" cx="288" cy="-408.78" rx="20.5982" ry="20.5982"/>
<text text-anchor="middle" x="288" y="-405.08" font-family="Helvetica,sans-Serif" font-size="14.00" fill="white">12</text>
</g>
<!-- 15 -->
<g id="node16" class="node"><title>15</title>
<ellipse fill="#006699" stroke="white" cx="331" cy="-331.183" rx="20.5982" ry="20.5982"/>
<text text-anchor="middle" x="331" y="-327.483" font-family="Helvetica,sans-Serif" font-size="14.00" fill="white">15</text>
</g>
<!-- 12&#45;&#45;15 -->
<g id="edge19" class="edge"><title>12&#45;&#45;15</title>
<path fill="none" stroke="white" d="M297.973,-390.246C304.92,-378.034 314.146,-361.814 321.081,-349.622"/>
</g>
<!-- 13&#45;&#45;14 -->
<g id="edge20" class="edge"><title>13&#45;&#45;14</title>
<path fill="none" stroke="white" d="M293.435,-470.441C305.356,-457.188 322.68,-437.928 334.593,-424.684"/>
</g>
<!-- 40 -->
<g id="node41" class="node"><title>40</title>
<ellipse fill="#006699" stroke="white" cx="228" cy="-408.78" rx="20.5982" ry="20.5982"/>
<text text-anchor="middle" x="228" y="-405.08" font-family="Helvetica,sans-Serif" font-size="14.00" fill="white">40</text>
</g>
<!-- 13&#45;&#45;40 -->
<g id="edge21" class="edge"><title>13&#45;&#45;40</title>
<path fill="none" stroke="white" d="M268.46,-468.599C259.782,-455.984 247.955,-438.789 239.329,-426.25"/>
</g>
<!-- 14&#45;&#45;15 -->
<g id="edge22" class="edge"><title>14&#45;&#45;15</title>
<path fill="none" stroke="white" d="M343.622,-388.312C341.084,-377.025 337.899,-362.861 335.363,-351.585"/>
</g>
<!-- 35 -->
<g id="node36" class="node"><title>35</title>
<ellipse fill="#006699" stroke="white" cx="481" cy="-331.183" rx="20.5982" ry="20.5982"/>
<text text-anchor="middle" x="481" y="-327.483" font-family="Helvetica,sans-Serif" font-size="14.00" fill="white">35</text>
</g>
<!-- 14&#45;&#45;35 -->
<g id="edge23" class="edge"><title>14&#45;&#45;35</title>
<path fill="none" stroke="white" d="M365.661,-397.741C391.099,-383.282 437.787,-356.745 463.266,-342.264"/>
</g>
<!-- 21 -->
<g id="node22" class="node"><title>21</title>
<ellipse fill="#006699" stroke="white" cx="245" cy="-253.587" rx="20.5982" ry="20.5982"/>
<text text-anchor="middle" x="245" y="-249.887" font-family="Helvetica,sans-Serif" font-size="14.00" fill="white">21</text>
</g>
<!-- 15&#45;&#45;21 -->
<g id="edge24" class="edge"><title>15&#45;&#45;21</title>
<path fill="none" stroke="white" d="M315.625,-316.668C299.971,-302.908 275.847,-281.703 260.242,-267.985"/>
</g>
<!-- 17 -->
<g id="node18" class="node"><title>17</title>
<ellipse fill="#006699" stroke="white" cx="75" cy="-408.78" rx="20.5982" ry="20.5982"/>
<text text-anchor="middle" x="75" y="-405.08" font-family="Helvetica,sans-Serif" font-size="14.00" fill="white">17</text>
</g>
<!-- 18 -->
<g id="node19" class="node"><title>18</title>
<ellipse fill="#006699" stroke="white" cx="53" cy="-331.183" rx="20.5982" ry="20.5982"/>
<text text-anchor="middle" x="53" y="-327.483" font-family="Helvetica,sans-Serif" font-size="14.00" fill="white">18</text>
</g>
<!-- 17&#45;&#45;18 -->
<g id="edge25" class="edge"><title>17&#45;&#45;18</title>
<path fill="none" stroke="white" d="M69.4485,-388.704C66.1134,-377.244 61.8845,-362.712 58.5498,-351.253"/>
</g>
<!-- 17&#45;&#45;29 -->
<g id="edge26" class="edge"><title>17&#45;&#45;29</title>
<path fill="none" stroke="white" d="M84.0055,-389.864C90.063,-377.814 98.0152,-361.994 104.059,-349.97"/>
</g>
<!-- 17&#45;&#45;36 -->
<g id="edge27" class="edge"><title>17&#45;&#45;36</title>
<path fill="none" stroke="white" d="M91.1827,-395.297C109.341,-381.29 138.626,-358.699 156.793,-344.685"/>
</g>
<!-- 20 -->
<g id="node21" class="node"><title>20</title>
<ellipse fill="#006699" stroke="white" cx="76" cy="-253.587" rx="20.5982" ry="20.5982"/>
<text text-anchor="middle" x="76" y="-249.887" font-family="Helvetica,sans-Serif" font-size="14.00" fill="white">20</text>
</g>
<!-- 18&#45;&#45;20 -->
<g id="edge28" class="edge"><title>18&#45;&#45;20</title>
<path fill="none" stroke="white" d="M58.8039,-311.107C62.2905,-299.647 66.7117,-285.116 70.198,-273.657"/>
</g>
<!-- 19&#45;&#45;27 -->
<g id="edge29" class="edge"><title>19&#45;&#45;27</title>
<path fill="none" stroke="white" d="M594.949,-551.537C590.739,-548.765 586.225,-545.834 582,-543.174 555.683,-526.606 548.317,-523.743 522,-507.174 517.775,-504.514 513.261,-501.584 509.051,-498.811"/>
</g>
<!-- 30 -->
<g id="node31" class="node"><title>30</title>
<ellipse fill="#006699" stroke="white" cx="612" cy="-486.376" rx="20.5982" ry="20.5982"/>
<text text-anchor="middle" x="612" y="-482.676" font-family="Helvetica,sans-Serif" font-size="14.00" fill="white">30</text>
</g>
<!-- 19&#45;&#45;30 -->
<g id="edge30" class="edge"><title>19&#45;&#45;30</title>
<path fill="none" stroke="white" d="M612,-543.11C612,-532.086 612,-518.413 612,-507.368"/>
</g>
<!-- 44 -->
<g id="node45" class="node"><title>44</title>
<ellipse fill="#006699" stroke="white" cx="100" cy="-175.991" rx="20.5982" ry="20.5982"/>
<text text-anchor="middle" x="100" y="-172.291" font-family="Helvetica,sans-Serif" font-size="14.00" fill="white">44</text>
</g>
<!-- 20&#45;&#45;44 -->
<g id="edge31" class="edge"><title>20&#45;&#45;44</title>
<path fill="none" stroke="white" d="M82.0562,-233.511C85.6944,-222.051 90.3079,-207.52 93.9457,-196.061"/>
</g>
<!-- 22 -->
<g id="node23" class="node"><title>22</title>
<ellipse fill="#006699" stroke="white" cx="268" cy="-175.991" rx="20.5982" ry="20.5982"/>
<text text-anchor="middle" x="268" y="-172.291" font-family="Helvetica,sans-Serif" font-size="14.00" fill="white">22</text>
</g>
<!-- 21&#45;&#45;22 -->
<g id="edge32" class="edge"><title>21&#45;&#45;22</title>
<path fill="none" stroke="white" d="M250.804,-233.511C254.29,-222.051 258.712,-207.52 262.198,-196.061"/>
</g>
<!-- 37 -->
<g id="node38" class="node"><title>37</title>
<ellipse fill="#006699" stroke="white" cx="173" cy="-98.3945" rx="20.5982" ry="20.5982"/>
<text text-anchor="middle" x="173" y="-94.6945" font-family="Helvetica,sans-Serif" font-size="14.00" fill="white">37</text>
</g>
<!-- 21&#45;&#45;37 -->
<g id="edge33" class="edge"><title>21&#45;&#45;37</title>
<path fill="none" stroke="white" d="M236.458,-234.412C222.601,-204.929 195.381,-147.014 181.531,-117.546"/>
</g>
<!-- 21&#45;&#45;44 -->
<g id="edge34" class="edge"><title>21&#45;&#45;44</title>
<path fill="none" stroke="white" d="M226.929,-243.166C199.143,-228.679 146.221,-201.088 118.299,-186.531"/>
</g>
<!-- 23 -->
<g id="node24" class="node"><title>23</title>
<ellipse fill="#006699" stroke="white" cx="391" cy="-98.3945" rx="20.5982" ry="20.5982"/>
<text text-anchor="middle" x="391" y="-94.6945" font-family="Helvetica,sans-Serif" font-size="14.00" fill="white">23</text>
</g>
<!-- 22&#45;&#45;23 -->
<g id="edge35" class="edge"><title>22&#45;&#45;23</title>
<path fill="none" stroke="white" d="M285.012,-163.492C289.223,-160.721 293.747,-157.807 298,-155.193 325.472,-138.302 333.528,-136.083 361,-119.193 365.253,-116.578 369.777,-113.664 373.988,-110.893"/>
</g>
<!-- 24 -->
<g id="node25" class="node"><title>24</title>
<ellipse fill="#006699" stroke="white" cx="451" cy="-98.3945" rx="20.5982" ry="20.5982"/>
<text text-anchor="middle" x="451" y="-94.6945" font-family="Helvetica,sans-Serif" font-size="14.00" fill="white">24</text>
</g>
<!-- 22&#45;&#45;24 -->
<g id="edge36" class="edge"><title>22&#45;&#45;24</title>
<path fill="none" stroke="white" d="M284.304,-162.968C288.611,-160.149 293.357,-157.344 298,-155.193 349.679,-131.239 369.321,-143.146 421,-119.193 425.643,-117.041 430.389,-114.236 434.696,-111.418"/>
</g>
<!-- 25 -->
<g id="node26" class="node"><title>25</title>
<ellipse fill="#006699" stroke="white" cx="271" cy="-98.3945" rx="20.5982" ry="20.5982"/>
<text text-anchor="middle" x="271" y="-94.6945" font-family="Helvetica,sans-Serif" font-size="14.00" fill="white">25</text>
</g>
<!-- 22&#45;&#45;25 -->
<g id="edge37" class="edge"><title>22&#45;&#45;25</title>
<path fill="none" stroke="white" d="M268.788,-155.129C269.226,-144.105 269.768,-130.431 270.207,-119.386"/>
</g>
<!-- 22&#45;&#45;37 -->
<g id="edge38" class="edge"><title>22&#45;&#45;37</title>
<path fill="none" stroke="white" d="M251.885,-162.167C234.309,-148.181 206.358,-125.939 188.877,-112.029"/>
</g>
<!-- 48 -->
<g id="node49" class="node"><title>48</title>
<ellipse fill="#006699" stroke="white" cx="194" cy="-20.7982" rx="20.5982" ry="20.5982"/>
<text text-anchor="middle" x="194" y="-17.0982" font-family="Helvetica,sans-Serif" font-size="14.00" fill="white">48</text>
</g>
<!-- 22&#45;&#45;48 -->
<g id="edge39" class="edge"><title>22&#45;&#45;48</title>
<path fill="none" stroke="white" d="M259.24,-156.9C253.955,-145.981 247.087,-131.789 241,-119.193 227.603,-91.4694 212.082,-59.2958 202.657,-39.7515"/>
</g>
<!-- 26 -->
<g id="node27" class="node"><title>26</title>
<ellipse fill="#006699" stroke="white" cx="552" cy="-563.972" rx="20.5982" ry="20.5982"/>
<text text-anchor="middle" x="552" y="-560.272" font-family="Helvetica,sans-Serif" font-size="14.00" fill="white">26</text>
</g>
<!-- 26&#45;&#45;27 -->
<g id="edge40" class="edge"><title>26&#45;&#45;27</title>
<path fill="none" stroke="white" d="M539.276,-546.94C529.025,-534.025 514.691,-515.966 504.5,-503.126"/>
</g>
<!-- 28 -->
<g id="node29" class="node"><title>28</title>
<ellipse fill="#006699" stroke="white" cx="552" cy="-486.376" rx="20.5982" ry="20.5982"/>
<text text-anchor="middle" x="552" y="-482.676" font-family="Helvetica,sans-Serif" font-size="14.00" fill="white">28</text>
</g>
<!-- 26&#45;&#45;28 -->
<g id="edge41" class="edge"><title>26&#45;&#45;28</title>
<path fill="none" stroke="white" d="M552,-543.11C552,-532.086 552,-518.413 552,-507.368"/>
</g>
<!-- 27&#45;&#45;31 -->
<g id="edge42" class="edge"><title>27&#45;&#45;31</title>
<path fill="none" stroke="white" d="M481.562,-468.222C474.034,-455.85 463.915,-439.222 456.397,-426.866"/>
</g>
<!-- 34 -->
<g id="node35" class="node"><title>34</title>
<ellipse fill="#006699" stroke="white" cx="506" cy="-408.78" rx="20.5982" ry="20.5982"/>
<text text-anchor="middle" x="506" y="-405.08" font-family="Helvetica,sans-Serif" font-size="14.00" fill="white">34</text>
</g>
<!-- 27&#45;&#45;34 -->
<g id="edge43" class="edge"><title>27&#45;&#45;34</title>
<path fill="none" stroke="white" d="M495.678,-465.514C497.736,-454.403 500.292,-440.599 502.346,-429.509"/>
</g>
<!-- 31&#45;&#45;32 -->
<g id="edge44" class="edge"><title>31&#45;&#45;32</title>
<path fill="none" stroke="white" d="M435.125,-391.002C427.062,-378.562 416.11,-361.667 408.014,-349.175"/>
</g>
<!-- 31&#45;&#45;33 -->
<g id="edge45" class="edge"><title>31&#45;&#45;33</title>
<path fill="none" stroke="white" d="M462.835,-395.977C467.052,-393.215 471.623,-390.382 476,-387.982 512.258,-368.099 556.975,-349.467 581.901,-339.571"/>
</g>
<!-- 31&#45;&#45;36 -->
<g id="edge46" class="edge"><title>31&#45;&#45;36</title>
<path fill="none" stroke="white" d="M426.179,-401.551C412.675,-397.421 394.35,-392.036 378,-387.982 300.928,-368.867 276.35,-382.399 203,-351.982 198.273,-350.021 193.497,-347.286 189.187,-344.472"/>
</g>
<!-- 41 -->
<g id="node42" class="node"><title>41</title>
<ellipse fill="#006699" stroke="white" cx="328" cy="-253.587" rx="20.5982" ry="20.5982"/>
<text text-anchor="middle" x="328" y="-249.887" font-family="Helvetica,sans-Serif" font-size="14.00" fill="white">41</text>
</g>
<!-- 32&#45;&#45;41 -->
<g id="edge47" class="edge"><title>32&#45;&#45;41</title>
<path fill="none" stroke="white" d="M383.368,-315.248C371.271,-301.995 353.692,-282.735 341.604,-269.491"/>
</g>
<!-- 34&#45;&#45;35 -->
<g id="edge48" class="edge"><title>34&#45;&#45;35</title>
<path fill="none" stroke="white" d="M499.691,-388.704C495.902,-377.244 491.096,-362.712 487.307,-351.253"/>
</g>
<!-- 36&#45;&#45;37 -->
<g id="edge49" class="edge"><title>36&#45;&#45;37</title>
<path fill="none" stroke="white" d="M173,-310.106C173,-266.349 173,-162.825 173,-119.261"/>
</g>
<!-- 38 -->
<g id="node39" class="node"><title>38</title>
<ellipse fill="#006699" stroke="white" cx="331" cy="-98.3945" rx="20.5982" ry="20.5982"/>
<text text-anchor="middle" x="331" y="-94.6945" font-family="Helvetica,sans-Serif" font-size="14.00" fill="white">38</text>
</g>
<!-- 39 -->
<g id="node40" class="node"><title>39</title>
<ellipse fill="#006699" stroke="white" cx="331" cy="-20.7982" rx="20.5982" ry="20.5982"/>
<text text-anchor="middle" x="331" y="-17.0982" font-family="Helvetica,sans-Serif" font-size="14.00" fill="white">39</text>
</g>
<!-- 38&#45;&#45;39 -->
<g id="edge50" class="edge"><title>38&#45;&#45;39</title>
<path fill="none" stroke="white" d="M331,-77.5324C331,-66.5085 331,-52.8347 331,-41.79"/>
</g>
<!-- 38&#45;&#45;48 -->
<g id="edge51" class="edge"><title>38&#45;&#45;48</title>
<path fill="none" stroke="white" d="M314.058,-85.779C309.845,-83.0117 305.302,-80.1287 301,-77.5963 270.668,-59.7422 234.065,-41.2914 212.486,-30.7161"/>
</g>
<!-- 40&#45;&#45;41 -->
<g id="edge52" class="edge"><title>40&#45;&#45;41</title>
<path fill="none" stroke="white" d="M239.084,-390.8C258.306,-361.353 297.61,-301.142 316.867,-271.643"/>
</g>
<!-- 42 -->
<g id="node43" class="node"><title>42</title>
<ellipse fill="#006699" stroke="white" cx="233" cy="-331.183" rx="20.5982" ry="20.5982"/>
<text text-anchor="middle" x="233" y="-327.483" font-family="Helvetica,sans-Serif" font-size="14.00" fill="white">42</text>
</g>
<!-- 40&#45;&#45;42 -->
<g id="edge53" class="edge"><title>40&#45;&#45;42</title>
<path fill="none" stroke="white" d="M229.314,-387.918C230.043,-376.894 230.947,-363.22 231.678,-352.175"/>
</g>
<!-- 43 -->
<g id="node44" class="node"><title>43</title>
<ellipse fill="#006699" stroke="white" cx="328" cy="-175.991" rx="20.5982" ry="20.5982"/>
<text text-anchor="middle" x="328" y="-172.291" font-family="Helvetica,sans-Serif" font-size="14.00" fill="white">43</text>
</g>
<!-- 41&#45;&#45;43 -->
<g id="edge54" class="edge"><title>41&#45;&#45;43</title>
<path fill="none" stroke="white" d="M328,-232.725C328,-221.701 328,-208.027 328,-196.983"/>
</g>
<!-- 45 -->
<g id="node46" class="node"><title>45</title>
<ellipse fill="#006699" stroke="white" cx="75" cy="-98.3945" rx="20.5982" ry="20.5982"/>
<text text-anchor="middle" x="75" y="-94.6945" font-family="Helvetica,sans-Serif" font-size="14.00" fill="white">45</text>
</g>
<!-- 44&#45;&#45;45 -->
<g id="edge55" class="edge"><title>44&#45;&#45;45</title>
<path fill="none" stroke="white" d="M93.6914,-155.915C89.9016,-144.455 85.096,-129.923 81.3065,-118.465"/>
</g>
<!-- 44&#45;&#45;48 -->
<g id="edge56" class="edge"><title>44&#45;&#45;48</title>
<path fill="none" stroke="white" d="M106.251,-156.132C113.447,-135.814 126.435,-102.983 143,-77.5963 153.327,-61.7691 168.173,-46.0927 179.186,-35.4051"/>
</g>
<!-- 46 -->
<g id="node47" class="node"><title>46</title>
<ellipse fill="#006699" stroke="white" cx="45" cy="-20.7982" rx="20.5982" ry="20.5982"/>
<text text-anchor="middle" x="45" y="-17.0982" font-family="Helvetica,sans-Serif" font-size="14.00" fill="white">46</text>
</g>
<!-- 45&#45;&#45;46 -->
<g id="edge57" class="edge"><title>45&#45;&#45;46</title>
<path fill="none" stroke="white" d="M67.5843,-78.7077C62.9341,-66.9899 56.9643,-51.9467 52.3304,-40.2699"/>
</g>
<!-- 47 -->
<g id="node48" class="node"><title>47</title>
<ellipse fill="#006699" stroke="white" cx="105" cy="-20.7982" rx="20.5982" ry="20.5982"/>
<text text-anchor="middle" x="105" y="-17.0982" font-family="Helvetica,sans-Serif" font-size="14.00" fill="white">47</text>
</g>
<!-- 45&#45;&#45;47 -->
<g id="edge58" class="edge"><title>45&#45;&#45;47</title>
<path fill="none" stroke="white" d="M82.4157,-78.7077C87.0659,-66.9899 93.0357,-51.9467 97.6696,-40.2699"/>
</g>
<!-- 45&#45;&#45;48 -->
<g id="edge59" class="edge"><title>45&#45;&#45;48</title>
<path fill="none" stroke="white" d="M92.3036,-86.4021C114.865,-72.0696 154.104,-47.1428 176.675,-32.8038"/>
</g>
</g>
</svg>
