<?xml version="1.0" encoding="UTF-8" standalone="no"?>
<!DOCTYPE svg PUBLIC "-//W3C//DTD SVG 1.1//EN"
 "http://www.w3.org/Graphics/SVG/1.1/DTD/svg11.dtd">
<!-- Generated by graphviz version 2.38.0 (20140413.2041)
 -->
<!-- Title: %3 Pages: 1 -->
<svg width="974pt" height="737pt"
 viewBox="0.00 0.00 974.00 736.77" xmlns="http://www.w3.org/2000/svg" xmlns:xlink="http://www.w3.org/1999/xlink">
<g id="graph0" class="graph" transform="scale(1 1) rotate(0) translate(4 732.77)">
<title>%3</title>
<polygon fill="#333333" stroke="none" points="-4,4 -4,-732.77 970,-732.77 970,4 -4,4"/>
<!-- 0 -->
<g id="node1" class="node"><title>0</title>
<ellipse fill="#006699" stroke="white" cx="753" cy="-638.77" rx="18" ry="18"/>
<text text-anchor="middle" x="753" y="-635.07" font-family="Helvetica,sans-Serif" font-size="14.00" fill="white">0</text>
</g>
<!-- 5 -->
<g id="node6" class="node"><title>5</title>
<ellipse fill="#006699" stroke="white" cx="730" cy="-563.972" rx="18" ry="18"/>
<text text-anchor="middle" x="730" y="-560.272" font-family="Helvetica,sans-Serif" font-size="14.00" fill="white">5</text>
</g>
<!-- 0&#45;&#45;5 -->
<g id="edge1" class="edge"><title>0&#45;&#45;5</title>
<path fill="none" stroke="white" d="M747.781,-621.251C744.017,-609.338 738.958,-593.325 735.198,-581.426"/>
</g>
<!-- 6 -->
<g id="node7" class="node"><title>6</title>
<ellipse fill="#006699" stroke="white" cx="802" cy="-331.183" rx="18" ry="18"/>
<text text-anchor="middle" x="802" y="-327.483" font-family="Helvetica,sans-Serif" font-size="14.00" fill="white">6</text>
</g>
<!-- 0&#45;&#45;6 -->
<g id="edge2" class="edge"><title>0&#45;&#45;6</title>
<path fill="none" stroke="white" d="M769.779,-631.439C787.907,-623.581 815.83,-608.273 828,-584.77 869.86,-503.933 827.271,-389.158 809.235,-347.795"/>
</g>
<!-- 12 -->
<g id="node13" class="node"><title>12</title>
<ellipse fill="#006699" stroke="white" cx="917" cy="-175.991" rx="20.5982" ry="20.5982"/>
<text text-anchor="middle" x="917" y="-172.291" font-family="Helvetica,sans-Serif" font-size="14.00" fill="white">12</text>
</g>
<!-- 0&#45;&#45;12 -->
<g id="edge3" class="edge"><title>0&#45;&#45;12</title>
<path fill="none" stroke="white" d="M770.794,-634.237C821.986,-622.933 966,-582.665 966,-487.376 966,-487.376 966,-487.376 966,-330.183 966,-279.084 940.961,-222.759 926.681,-194.791"/>
</g>
<!-- 13 -->
<g id="node14" class="node"><title>13</title>
<ellipse fill="#006699" stroke="white" cx="581" cy="-486.376" rx="20.5982" ry="20.5982"/>
<text text-anchor="middle" x="581" y="-482.676" font-family="Helvetica,sans-Serif" font-size="14.00" fill="white">13</text>
</g>
<!-- 0&#45;&#45;13 -->
<g id="edge4" class="edge"><title>0&#45;&#45;13</title>
<path fill="none" stroke="white" d="M737.491,-629.499C720.17,-619.901 691.719,-603.04 670,-584.77 639.676,-559.262 609.692,-523.752 593.437,-503.407"/>
</g>
<!-- 17 -->
<g id="node18" class="node"><title>17</title>
<ellipse fill="#006699" stroke="white" cx="527" cy="-408.78" rx="20.5982" ry="20.5982"/>
<text text-anchor="middle" x="527" y="-405.08" font-family="Helvetica,sans-Serif" font-size="14.00" fill="white">17</text>
</g>
<!-- 0&#45;&#45;17 -->
<g id="edge5" class="edge"><title>0&#45;&#45;17</title>
<path fill="none" stroke="white" d="M740.72,-625.457C730.371,-614.916 715.322,-599.2 703,-584.77 659.542,-533.883 659.969,-511.187 611,-465.578 590.502,-446.486 562.814,-429.463 544.93,-419.38"/>
</g>
<!-- 18 -->
<g id="node19" class="node"><title>18</title>
<ellipse fill="#006699" stroke="white" cx="296" cy="-331.183" rx="20.5982" ry="20.5982"/>
<text text-anchor="middle" x="296" y="-327.483" font-family="Helvetica,sans-Serif" font-size="14.00" fill="white">18</text>
</g>
<!-- 0&#45;&#45;18 -->
<g id="edge6" class="edge"><title>0&#45;&#45;18</title>
<path fill="none" stroke="white" d="M735.738,-632.305C710.476,-623.94 662.381,-606.61 625,-584.77 502.604,-513.263 487.451,-472.97 374,-387.982 353.079,-372.309 328.482,-354.873 312.587,-343.732"/>
</g>
<!-- 19 -->
<g id="node20" class="node"><title>19</title>
<ellipse fill="#006699" stroke="white" cx="517" cy="-253.587" rx="20.5982" ry="20.5982"/>
<text text-anchor="middle" x="517" y="-249.887" font-family="Helvetica,sans-Serif" font-size="14.00" fill="white">19</text>
</g>
<!-- 0&#45;&#45;19 -->
<g id="edge7" class="edge"><title>0&#45;&#45;19</title>
<path fill="none" stroke="white" d="M756.967,-620.956C760.769,-601.716 764.869,-569.473 757,-543.174 745.17,-503.637 737.641,-492.073 706,-465.578 674.859,-439.501 652.6,-456.288 622,-429.578 570.752,-384.845 537.313,-308.779 523.797,-273.542"/>
</g>
<!-- 21 -->
<g id="node22" class="node"><title>21</title>
<ellipse fill="#006699" stroke="white" cx="602" cy="-98.3945" rx="20.5982" ry="20.5982"/>
<text text-anchor="middle" x="602" y="-94.6945" font-family="Helvetica,sans-Serif" font-size="14.00" fill="white">21</text>
</g>
<!-- 0&#45;&#45;21 -->
<g id="edge8" class="edge"><title>0&#45;&#45;21</title>
<path fill="none" stroke="white" d="M760.853,-622.467C765.707,-612.124 771.476,-597.992 774,-584.77 777.467,-566.611 777.888,-561.248 774,-543.174 766.044,-506.187 765.361,-492.716 739,-465.578 713.516,-439.343 687.503,-458.41 665,-429.578 590.135,-333.66 595.428,-174.961 599.97,-119.372"/>
</g>
<!-- 1 -->
<g id="node2" class="node"><title>1</title>
<ellipse fill="#006699" stroke="white" cx="494" cy="-710.77" rx="18" ry="18"/>
<text text-anchor="middle" x="494" y="-707.07" font-family="Helvetica,sans-Serif" font-size="14.00" fill="white">1</text>
</g>
<!-- 8 -->
<g id="node9" class="node"><title>8</title>
<ellipse fill="#006699" stroke="white" cx="448" cy="-638.77" rx="18" ry="18"/>
<text text-anchor="middle" x="448" y="-635.07" font-family="Helvetica,sans-Serif" font-size="14.00" fill="white">8</text>
</g>
<!-- 1&#45;&#45;8 -->
<g id="edge9" class="edge"><title>1&#45;&#45;8</title>
<path fill="none" stroke="white" d="M484.469,-695.266C476.574,-683.253 465.41,-666.265 457.519,-654.256"/>
</g>
<!-- 9 -->
<g id="node10" class="node"><title>9</title>
<ellipse fill="#006699" stroke="white" cx="486" cy="-563.972" rx="18" ry="18"/>
<text text-anchor="middle" x="486" y="-560.272" font-family="Helvetica,sans-Serif" font-size="14.00" fill="white">9</text>
</g>
<!-- 1&#45;&#45;9 -->
<g id="edge10" class="edge"><title>1&#45;&#45;9</title>
<path fill="none" stroke="white" d="M493.051,-692.592C491.511,-664.724 488.487,-609.982 486.948,-582.129"/>
</g>
<!-- 1&#45;&#45;13 -->
<g id="edge11" class="edge"><title>1&#45;&#45;13</title>
<path fill="none" stroke="white" d="M508.209,-699.197C520.178,-689.503 536.782,-674.06 546,-656.77 572.278,-607.482 578.847,-540.394 580.475,-507.39"/>
</g>
<!-- 14 -->
<g id="node15" class="node"><title>14</title>
<ellipse fill="#006699" stroke="white" cx="369" cy="-486.376" rx="20.5982" ry="20.5982"/>
<text text-anchor="middle" x="369" y="-482.676" font-family="Helvetica,sans-Serif" font-size="14.00" fill="white">14</text>
</g>
<!-- 1&#45;&#45;14 -->
<g id="edge12" class="edge"><title>1&#45;&#45;14</title>
<path fill="none" stroke="white" d="M477.973,-702.093C461.377,-693.35 435.84,-677.543 421,-656.77 387.47,-609.836 375.161,-540.783 370.975,-507.189"/>
</g>
<!-- 1&#45;&#45;17 -->
<g id="edge13" class="edge"><title>1&#45;&#45;17</title>
<path fill="none" stroke="white" d="M497.513,-692.631C499.566,-682.276 502.116,-668.797 504,-656.77 517.133,-572.953 523.674,-471.873 525.991,-429.734"/>
</g>
<!-- 2 -->
<g id="node3" class="node"><title>2</title>
<ellipse fill="#006699" stroke="white" cx="692" cy="-408.78" rx="18" ry="18"/>
<text text-anchor="middle" x="692" y="-405.08" font-family="Helvetica,sans-Serif" font-size="14.00" fill="white">2</text>
</g>
<!-- 2&#45;&#45;6 -->
<g id="edge14" class="edge"><title>2&#45;&#45;6</title>
<path fill="none" stroke="white" d="M706.381,-397.897C727.462,-383.409 766.532,-356.558 787.616,-342.069"/>
</g>
<!-- 11 -->
<g id="node12" class="node"><title>11</title>
<ellipse fill="#006699" stroke="white" cx="803" cy="-253.587" rx="20.5982" ry="20.5982"/>
<text text-anchor="middle" x="803" y="-249.887" font-family="Helvetica,sans-Serif" font-size="14.00" fill="white">11</text>
</g>
<!-- 2&#45;&#45;11 -->
<g id="edge15" class="edge"><title>2&#45;&#45;11</title>
<path fill="none" stroke="white" d="M702.244,-393.642C722.853,-365.199 769.224,-301.202 791.121,-270.981"/>
</g>
<!-- 20 -->
<g id="node21" class="node"><title>20</title>
<ellipse fill="#006699" stroke="white" cx="515" cy="-175.991" rx="20.5982" ry="20.5982"/>
<text text-anchor="middle" x="515" y="-172.291" font-family="Helvetica,sans-Serif" font-size="14.00" fill="white">20</text>
</g>
<!-- 2&#45;&#45;20 -->
<g id="edge16" class="edge"><title>2&#45;&#45;20</title>
<path fill="none" stroke="white" d="M681.458,-394.034C650.572,-353.762 560.395,-236.18 527.334,-193.073"/>
</g>
<!-- 2&#45;&#45;21 -->
<g id="edge17" class="edge"><title>2&#45;&#45;21</title>
<path fill="none" stroke="white" d="M687.161,-391.2C671.79,-338.53 624.118,-175.182 607.658,-118.78"/>
</g>
<!-- 22 -->
<g id="node23" class="node"><title>22</title>
<ellipse fill="#006699" stroke="white" cx="602" cy="-20.7982" rx="20.5982" ry="20.5982"/>
<text text-anchor="middle" x="602" y="-17.0982" font-family="Helvetica,sans-Serif" font-size="14.00" fill="white">22</text>
</g>
<!-- 2&#45;&#45;22 -->
<g id="edge18" class="edge"><title>2&#45;&#45;22</title>
<path fill="none" stroke="white" d="M696.402,-390.913C703.331,-362.839 716,-304.659 716,-254.587 716,-254.587 716,-254.587 716,-174.991 716,-110.676 650.532,-55.8628 618.821,-33.0851"/>
</g>
<!-- 3 -->
<g id="node4" class="node"><title>3</title>
<ellipse fill="#006699" stroke="white" cx="76" cy="-710.77" rx="18" ry="18"/>
<text text-anchor="middle" x="76" y="-707.07" font-family="Helvetica,sans-Serif" font-size="14.00" fill="white">3</text>
</g>
<!-- 7 -->
<g id="node8" class="node"><title>7</title>
<ellipse fill="#006699" stroke="white" cx="204" cy="-638.77" rx="18" ry="18"/>
<text text-anchor="middle" x="204" y="-635.07" font-family="Helvetica,sans-Serif" font-size="14.00" fill="white">7</text>
</g>
<!-- 3&#45;&#45;7 -->
<g id="edge19" class="edge"><title>3&#45;&#45;7</title>
<path fill="none" stroke="white" d="M91.4398,-701.327C116.042,-687.873 163.869,-661.717 188.505,-648.244"/>
</g>
<!-- 10 -->
<g id="node11" class="node"><title>10</title>
<ellipse fill="#006699" stroke="white" cx="49" cy="-408.78" rx="20.5982" ry="20.5982"/>
<text text-anchor="middle" x="49" y="-405.08" font-family="Helvetica,sans-Serif" font-size="14.00" fill="white">10</text>
</g>
<!-- 3&#45;&#45;10 -->
<g id="edge20" class="edge"><title>3&#45;&#45;10</title>
<path fill="none" stroke="white" d="M70.6967,-693.248C67.606,-682.885 63.9446,-669.181 62,-656.77 48.9058,-573.199 48.2661,-471.987 48.6667,-429.773"/>
</g>
<!-- 15 -->
<g id="node16" class="node"><title>15</title>
<ellipse fill="#006699" stroke="white" cx="125" cy="-563.972" rx="20.5982" ry="20.5982"/>
<text text-anchor="middle" x="125" y="-560.272" font-family="Helvetica,sans-Serif" font-size="14.00" fill="white">15</text>
</g>
<!-- 3&#45;&#45;15 -->
<g id="edge21" class="edge"><title>3&#45;&#45;15</title>
<path fill="none" stroke="white" d="M81.5257,-693.442C90.6362,-666.52 108.766,-612.945 118.486,-584.221"/>
</g>
<!-- 3&#45;&#45;18 -->
<g id="edge22" class="edge"><title>3&#45;&#45;18</title>
<path fill="none" stroke="white" d="M73.4459,-692.742C66.5473,-639.863 53.1977,-476.726 135,-387.982 144.9,-377.242 235.35,-349.863 276.171,-337.91"/>
</g>
<!-- 3&#45;&#45;19 -->
<g id="edge23" class="edge"><title>3&#45;&#45;19</title>
<path fill="none" stroke="white" d="M63.7893,-696.994C42.3058,-673.112 0,-619.199 0,-564.972 0,-564.972 0,-564.972 0,-407.78 0,-302.464 399.37,-263.936 496.093,-256.149"/>
</g>
<!-- 4 -->
<g id="node5" class="node"><title>4</title>
<ellipse fill="#006699" stroke="white" cx="250" cy="-710.77" rx="18" ry="18"/>
<text text-anchor="middle" x="250" y="-707.07" font-family="Helvetica,sans-Serif" font-size="14.00" fill="white">4</text>
</g>
<!-- 4&#45;&#45;7 -->
<g id="edge24" class="edge"><title>4&#45;&#45;7</title>
<path fill="none" stroke="white" d="M240.469,-695.266C232.574,-683.253 221.41,-666.265 213.519,-654.256"/>
</g>
<!-- 4&#45;&#45;9 -->
<g id="edge25" class="edge"><title>4&#45;&#45;9</title>
<path fill="none" stroke="white" d="M265.368,-700.903C283.35,-690.485 313.978,-672.609 340,-656.77 388.339,-627.349 444.881,-591.335 471.166,-574.499"/>
</g>
<!-- 4&#45;&#45;14 -->
<g id="edge26" class="edge"><title>4&#45;&#45;14</title>
<path fill="none" stroke="white" d="M260.761,-696.219C278.021,-673.991 312.165,-627.932 334,-584.77 347.139,-558.798 357.665,-526.695 363.623,-506.621"/>
</g>
<!-- 4&#45;&#45;15 -->
<g id="edge27" class="edge"><title>4&#45;&#45;15</title>
<path fill="none" stroke="white" d="M234.538,-701.234C218.646,-691.89 193.903,-675.692 177,-656.77 157.11,-634.505 141.467,-603.377 132.727,-583.699"/>
</g>
<!-- 16 -->
<g id="node17" class="node"><title>16</title>
<ellipse fill="#006699" stroke="white" cx="223" cy="-486.376" rx="20.5982" ry="20.5982"/>
<text text-anchor="middle" x="223" y="-482.676" font-family="Helvetica,sans-Serif" font-size="14.00" fill="white">16</text>
</g>
<!-- 4&#45;&#45;16 -->
<g id="edge28" class="edge"><title>4&#45;&#45;16</title>
<path fill="none" stroke="white" d="M247.926,-692.689C243.012,-652.208 230.676,-550.599 225.426,-507.358"/>
</g>
<!-- 5&#45;&#45;6 -->
<g id="edge29" class="edge"><title>5&#45;&#45;6</title>
<path fill="none" stroke="white" d="M735.178,-546.375C748.463,-503.792 783.636,-391.047 796.869,-348.631"/>
</g>
<!-- 5&#45;&#45;12 -->
<g id="edge30" class="edge"><title>5&#45;&#45;12</title>
<path fill="none" stroke="white" d="M740.42,-549.069C748.567,-537.967 759.985,-521.887 769,-507.174 830.245,-407.221 851.099,-383.865 893,-274.385 902.959,-248.363 909.845,-216.824 913.608,-196.829"/>
</g>
<!-- 5&#45;&#45;13 -->
<g id="edge31" class="edge"><title>5&#45;&#45;13</title>
<path fill="none" stroke="white" d="M714.336,-555.025C686.541,-540.923 628.749,-511.602 599.221,-496.621"/>
</g>
<!-- 5&#45;&#45;17 -->
<g id="edge32" class="edge"><title>5&#45;&#45;17</title>
<path fill="none" stroke="white" d="M725.046,-546.352C717.76,-524.704 702.114,-487.091 676,-465.578 635.971,-432.602 612.83,-449.629 565,-429.578 558.277,-426.759 551.132,-423.197 544.874,-419.874"/>
</g>
<!-- 6&#45;&#45;11 -->
<g id="edge33" class="edge"><title>6&#45;&#45;11</title>
<path fill="none" stroke="white" d="M802.227,-313.029C802.378,-301.616 802.577,-286.58 802.735,-274.618"/>
</g>
<!-- 6&#45;&#45;12 -->
<g id="edge34" class="edge"><title>6&#45;&#45;12</title>
<path fill="none" stroke="white" d="M816.349,-320.146C830.309,-309.853 851.481,-292.785 866,-274.385 885.509,-249.663 901.056,-216.349 909.644,-195.79"/>
</g>
<!-- 6&#45;&#45;19 -->
<g id="edge35" class="edge"><title>6&#45;&#45;19</title>
<path fill="none" stroke="white" d="M784.601,-325.568C734.567,-312.297 590.483,-274.079 537.16,-259.934"/>
</g>
<!-- 6&#45;&#45;21 -->
<g id="edge36" class="edge"><title>6&#45;&#45;21</title>
<path fill="none" stroke="white" d="M793.596,-314.927C772.665,-277.265 718.025,-181.057 692,-155.193 670.745,-134.069 640.07,-117.224 620.588,-107.773"/>
</g>
<!-- 23 -->
<g id="node24" class="node"><title>23</title>
<ellipse fill="#006699" stroke="white" cx="868" cy="-98.3945" rx="20.5982" ry="20.5982"/>
<text text-anchor="middle" x="868" y="-94.6945" font-family="Helvetica,sans-Serif" font-size="14.00" fill="white">23</text>
</g>
<!-- 6&#45;&#45;23 -->
<g id="edge37" class="edge"><title>6&#45;&#45;23</title>
<path fill="none" stroke="white" d="M811.657,-315.6C818.507,-304.663 827.436,-289.105 833,-274.385 853.43,-220.336 862.669,-152.165 866.179,-119.133"/>
</g>
<!-- 7&#45;&#45;9 -->
<g id="edge38" class="edge"><title>7&#45;&#45;9</title>
<path fill="none" stroke="white" d="M221.216,-633.326C271.56,-620.33 418.138,-582.491 468.651,-569.451"/>
</g>
<!-- 7&#45;&#45;14 -->
<g id="edge39" class="edge"><title>7&#45;&#45;14</title>
<path fill="none" stroke="white" d="M220.736,-631.578C241.521,-623.288 277.253,-607.006 302,-584.77 327.8,-561.589 348.735,-526.569 359.984,-505.444"/>
</g>
<!-- 7&#45;&#45;15 -->
<g id="edge40" class="edge"><title>7&#45;&#45;15</title>
<path fill="none" stroke="white" d="M190.955,-625.749C176.931,-612.826 154.673,-592.316 139.952,-578.751"/>
</g>
<!-- 7&#45;&#45;16 -->
<g id="edge41" class="edge"><title>7&#45;&#45;16</title>
<path fill="none" stroke="white" d="M206.143,-620.811C209.675,-592.848 216.705,-537.203 220.474,-507.369"/>
</g>
<!-- 7&#45;&#45;17 -->
<g id="edge42" class="edge"><title>7&#45;&#45;17</title>
<path fill="none" stroke="white" d="M211.801,-622.284C229.588,-588.557 276.49,-508.087 339,-465.578 392.35,-429.298 469.731,-416.155 506.333,-411.775"/>
</g>
<!-- 7&#45;&#45;18 -->
<g id="edge43" class="edge"><title>7&#45;&#45;18</title>
<path fill="none" stroke="white" d="M198.799,-621.072C189.903,-589.653 174.43,-520.012 193,-465.578 210.477,-414.348 256.484,-367.498 280.659,-345.452"/>
</g>
<!-- 8&#45;&#45;9 -->
<g id="edge44" class="edge"><title>8&#45;&#45;9</title>
<path fill="none" stroke="white" d="M456.059,-622.332C462.508,-609.978 471.507,-592.737 477.953,-580.389"/>
</g>
<!-- 8&#45;&#45;14 -->
<g id="edge45" class="edge"><title>8&#45;&#45;14</title>
<path fill="none" stroke="white" d="M444.324,-620.917C439.611,-601.359 430.298,-568.55 416,-543.174 407.171,-527.505 393.676,-512.051 383.408,-501.394"/>
</g>
<!-- 9&#45;&#45;13 -->
<g id="edge46" class="edge"><title>9&#45;&#45;13</title>
<path fill="none" stroke="white" d="M499.611,-552.141C516.952,-538.342 546.868,-514.537 565.198,-499.951"/>
</g>
<!-- 9&#45;&#45;14 -->
<g id="edge47" class="edge"><title>9&#45;&#45;14</title>
<path fill="none" stroke="white" d="M471.182,-553.398C449.537,-539.413 409.357,-513.452 386.358,-498.592"/>
</g>
<!-- 9&#45;&#45;17 -->
<g id="edge48" class="edge"><title>9&#45;&#45;17</title>
<path fill="none" stroke="white" d="M490.466,-546.286C498.103,-517.749 513.636,-459.715 521.768,-429.328"/>
</g>
<!-- 9&#45;&#45;18 -->
<g id="edge49" class="edge"><title>9&#45;&#45;18</title>
<path fill="none" stroke="white" d="M474.964,-549.567C441.937,-509.45 343.995,-390.482 308.786,-347.715"/>
</g>
<!-- 10&#45;&#45;18 -->
<g id="edge50" class="edge"><title>10&#45;&#45;18</title>
<path fill="none" stroke="white" d="M66.3373,-396.729C71.83,-393.572 78.0295,-390.349 84,-387.982 146.528,-363.189 166.136,-369.788 231,-351.982 246.357,-347.766 263.593,-342.491 276.456,-338.446"/>
</g>
<!-- 10&#45;&#45;19 -->
<g id="edge51" class="edge"><title>10&#45;&#45;19</title>
<path fill="none" stroke="white" d="M66.5987,-397.317C72.1021,-394.184 78.2418,-390.827 84,-387.982 162.836,-349.03 182.281,-337.284 266,-310.385 349.726,-283.484 453.229,-264.943 496.49,-257.826"/>
</g>
<!-- 10&#45;&#45;20 -->
<g id="edge52" class="edge"><title>10&#45;&#45;20</title>
<path fill="none" stroke="white" d="M62.2726,-392.274C81.0381,-371.19 117.265,-333.468 155,-310.385 273.55,-237.867 437.793,-194.989 494.662,-181.574"/>
</g>
<!-- 10&#45;&#45;21 -->
<g id="edge53" class="edge"><title>10&#45;&#45;21</title>
<path fill="none" stroke="white" d="M55.0334,-388.715C62.4598,-367.615 76.7562,-333.536 98,-310.385 237.973,-157.847 505.6,-112.046 581.485,-101.854"/>
</g>
<!-- 11&#45;&#45;12 -->
<g id="edge54" class="edge"><title>11&#45;&#45;12</title>
<path fill="none" stroke="white" d="M820.314,-241.106C841.866,-226.814 878.443,-202.559 899.896,-188.333"/>
</g>
<!-- 11&#45;&#45;21 -->
<g id="edge55" class="edge"><title>11&#45;&#45;21</title>
<path fill="none" stroke="white" d="M800.965,-232.677C797.698,-210.819 789.308,-176.063 768,-155.193 727.383,-115.408 657.53,-103.973 622.825,-100.699"/>
</g>
<!-- 11&#45;&#45;23 -->
<g id="edge56" class="edge"><title>11&#45;&#45;23</title>
<path fill="none" stroke="white" d="M810.841,-234.108C823.334,-204.664 847.621,-147.424 860.132,-117.939"/>
</g>
<!-- 12&#45;&#45;23 -->
<g id="edge57" class="edge"><title>12&#45;&#45;23</title>
<path fill="none" stroke="white" d="M906.125,-158.214C898.062,-145.773 887.11,-128.878 879.014,-116.386"/>
</g>
<!-- 13&#45;&#45;17 -->
<g id="edge58" class="edge"><title>13&#45;&#45;17</title>
<path fill="none" stroke="white" d="M569.283,-468.973C560.225,-456.293 547.746,-438.823 538.694,-426.151"/>
</g>
<!-- 15&#45;&#45;16 -->
<g id="edge59" class="edge"><title>15&#45;&#45;16</title>
<path fill="none" stroke="white" d="M141.183,-550.489C159.341,-536.482 188.626,-513.892 206.793,-499.878"/>
</g>
<!-- 15&#45;&#45;18 -->
<g id="edge60" class="edge"><title>15&#45;&#45;18</title>
<path fill="none" stroke="white" d="M123.313,-543.133C121.413,-507.794 122.555,-433.403 160,-387.982 175.341,-369.372 242.158,-347.828 276.082,-337.825"/>
</g>
<!-- 17&#45;&#45;18 -->
<g id="edge61" class="edge"><title>17&#45;&#45;18</title>
<path fill="none" stroke="white" d="M507.518,-400.883C496.524,-397.024 482.52,-392.163 470,-387.982 414.183,-369.341 347.897,-348.418 315.621,-338.307"/>
</g>
<!-- 17&#45;&#45;19 -->
<g id="edge62" class="edge"><title>17&#45;&#45;19</title>
<path fill="none" stroke="white" d="M525.693,-387.752C523.776,-358.393 520.224,-303.981 518.308,-274.619"/>
</g>
<!-- 18&#45;&#45;19 -->
<g id="edge63" class="edge"><title>18&#45;&#45;19</title>
<path fill="none" stroke="white" d="M315.612,-323.475C357.551,-309.129 455.532,-275.613 497.432,-261.281"/>
</g>
<!-- 19&#45;&#45;20 -->
<g id="edge64" class="edge"><title>19&#45;&#45;20</title>
<path fill="none" stroke="white" d="M516.475,-232.725C516.183,-221.701 515.821,-208.027 515.529,-196.983"/>
</g>
<!-- 19&#45;&#45;21 -->
<g id="edge65" class="edge"><title>19&#45;&#45;21</title>
<path fill="none" stroke="white" d="M526.751,-235.014C543.06,-205.621 575.694,-146.805 592.101,-117.235"/>
</g>
<!-- 20&#45;&#45;21 -->
<g id="edge66" class="edge"><title>20&#45;&#45;21</title>
<path fill="none" stroke="white" d="M530.554,-161.476C546.39,-147.716 570.794,-126.51 586.581,-112.793"/>
</g>
<!-- 20&#45;&#45;22 -->
<g id="edge67" class="edge"><title>20&#45;&#45;22</title>
<path fill="none" stroke="white" d="M524.98,-157.418C541.762,-127.867 575.433,-68.5785 592.136,-39.1663"/>
</g>
<!-- 21&#45;&#45;22 -->
<g id="edge68" class="edge"><title>21&#45;&#45;22</title>
<path fill="none" stroke="white" d="M602,-77.5324C602,-66.5085 602,-52.8347 602,-41.79"/>
</g>
</g>
</svg>
