<?xml version="1.0" encoding="UTF-8" standalone="no"?>
<!DOCTYPE svg PUBLIC "-//W3C//DTD SVG 1.1//EN"
 "http://www.w3.org/Graphics/SVG/1.1/DTD/svg11.dtd">
<!-- Generated by graphviz version 2.38.0 (20140413.2041)
 -->
<!-- Title: %3 Pages: 1 -->
<svg width="241pt" height="188pt"
 viewBox="0.00 0.00 241.00 188.00" xmlns="http://www.w3.org/2000/svg" xmlns:xlink="http://www.w3.org/1999/xlink">
<g id="graph0" class="graph" transform="scale(1 1) rotate(0) translate(4 184)">
<title>%3</title>
<polygon fill="#333333" stroke="none" points="-4,4 -4,-184 237,-184 237,4 -4,4"/>
<!-- 0 -->
<g id="node1" class="node"><title>0</title>
<ellipse fill="red" stroke="white" cx="95" cy="-18" rx="18" ry="18"/>
<text text-anchor="middle" x="95" y="-14.3" font-family="Helvetica,sans-Serif" font-size="14.00" fill="white">0</text>
</g>
<!-- 2 -->
<g id="node3" class="node"><title>2</title>
<ellipse fill="#006699" stroke="white" cx="53" cy="-90" rx="18" ry="18"/>
<text text-anchor="middle" x="53" y="-86.3" font-family="Helvetica,sans-Serif" font-size="14.00" fill="white">2</text>
</g>
<!-- 0&#45;&#45;2 -->
<g id="edge1" class="edge"><title>0&#45;&#45;2</title>
<path fill="none" stroke="white" d="M86.0929,-33.8452C78.9653,-45.7244 69.0184,-62.3026 61.8943,-74.1762"/>
</g>
<!-- 7 -->
<g id="node8" class="node"><title>7</title>
<ellipse fill="#006699" stroke="white" cx="107" cy="-90" rx="18" ry="18"/>
<text text-anchor="middle" x="107" y="-86.3" font-family="Helvetica,sans-Serif" font-size="14.00" fill="white">7</text>
</g>
<!-- 0&#45;&#45;7 -->
<g id="edge2" class="edge"><title>0&#45;&#45;7</title>
<path fill="none" stroke="white" d="M97.9049,-35.945C99.7916,-46.9508 102.241,-61.2364 104.122,-72.211"/>
</g>
<!-- 1 -->
<g id="node2" class="node"><title>1</title>
<ellipse fill="#006699" stroke="white" cx="215" cy="-18" rx="18" ry="18"/>
<text text-anchor="middle" x="215" y="-14.3" font-family="Helvetica,sans-Serif" font-size="14.00" fill="white">1</text>
</g>
<!-- 4 -->
<g id="node5" class="node"><title>4</title>
<ellipse fill="#006699" stroke="white" cx="215" cy="-90" rx="18" ry="18"/>
<text text-anchor="middle" x="215" y="-86.3" font-family="Helvetica,sans-Serif" font-size="14.00" fill="white">4</text>
</g>
<!-- 1&#45;&#45;4 -->
<g id="edge3" class="edge"><title>1&#45;&#45;4</title>
<path fill="none" stroke="white" d="M215,-36.3034C215,-47.1537 215,-61.0833 215,-71.8957"/>
</g>
<!-- 6 -->
<g id="node7" class="node"><title>6</title>
<ellipse fill="#006699" stroke="white" cx="30" cy="-162" rx="18" ry="18"/>
<text text-anchor="middle" x="30" y="-158.3" font-family="Helvetica,sans-Serif" font-size="14.00" fill="white">6</text>
</g>
<!-- 2&#45;&#45;6 -->
<g id="edge4" class="edge"><title>2&#45;&#45;6</title>
<path fill="none" stroke="white" d="M47.6655,-107.235C44.0029,-118.382 39.1556,-133.135 35.4653,-144.367"/>
</g>
<!-- 3 -->
<g id="node4" class="node"><title>3</title>
<ellipse fill="red" stroke="white" cx="161" cy="-90" rx="18" ry="18"/>
<text text-anchor="middle" x="161" y="-86.3" font-family="Helvetica,sans-Serif" font-size="14.00" fill="white">3</text>
</g>
<!-- 8 -->
<g id="node9" class="node"><title>8</title>
<ellipse fill="#006699" stroke="white" cx="161" cy="-162" rx="18" ry="18"/>
<text text-anchor="middle" x="161" y="-158.3" font-family="Helvetica,sans-Serif" font-size="14.00" fill="white">8</text>
</g>
<!-- 3&#45;&#45;8 -->
<g id="edge5" class="edge"><title>3&#45;&#45;8</title>
<path fill="none" stroke="white" d="M161,-108.303C161,-119.154 161,-133.083 161,-143.896"/>
</g>
<!-- 9 -->
<g id="node10" class="node"><title>9</title>
<ellipse fill="#006699" stroke="white" cx="107" cy="-162" rx="18" ry="18"/>
<text text-anchor="middle" x="107" y="-158.3" font-family="Helvetica,sans-Serif" font-size="14.00" fill="white">9</text>
</g>
<!-- 3&#45;&#45;9 -->
<g id="edge6" class="edge"><title>3&#45;&#45;9</title>
<path fill="none" stroke="white" d="M150.331,-104.83C140.864,-117.102 127.107,-134.936 117.646,-147.199"/>
</g>
<!-- 4&#45;&#45;8 -->
<g id="edge7" class="edge"><title>4&#45;&#45;8</title>
<path fill="none" stroke="white" d="M204.331,-104.83C194.864,-117.102 181.107,-134.936 171.646,-147.199"/>
</g>
<!-- 5 -->
<g id="node6" class="node"><title>5</title>
<ellipse fill="#006699" stroke="white" cx="18" cy="-18" rx="18" ry="18"/>
<text text-anchor="middle" x="18" y="-14.3" font-family="Helvetica,sans-Serif" font-size="14.00" fill="white">5</text>
</g>
<!-- 5&#45;&#45;6 -->
<g id="edge8" class="edge"><title>5&#45;&#45;6</title>
<path fill="none" stroke="white" d="M19.4475,-36.1285C21.7539,-63.4216 26.2377,-116.48 28.5474,-143.811"/>
</g>
<!-- 5&#45;&#45;7 -->
<g id="edge9" class="edge"><title>5&#45;&#45;7</title>
<path fill="none" stroke="white" d="M31.9062,-29.9375C48.6263,-43.0881 76.5149,-65.023 93.1914,-78.1393"/>
</g>
<!-- 7&#45;&#45;8 -->
<g id="edge10" class="edge"><title>7&#45;&#45;8</title>
<path fill="none" stroke="white" d="M117.669,-104.83C127.136,-117.102 140.893,-134.936 150.354,-147.199"/>
</g>
<!-- 7&#45;&#45;9 -->
<g id="edge11" class="edge"><title>7&#45;&#45;9</title>
<path fill="none" stroke="white" d="M107,-108.303C107,-119.154 107,-133.083 107,-143.896"/>
</g>
</g>
</svg>
