<?xml version="1.0" encoding="UTF-8" standalone="no"?>
<!DOCTYPE svg PUBLIC "-//W3C//DTD SVG 1.1//EN"
 "http://www.w3.org/Graphics/SVG/1.1/DTD/svg11.dtd">
<!-- Generated by graphviz version 2.38.0 (20140413.2041)
 -->
<!-- Title: %3 Pages: 1 -->
<svg width="98pt" height="404pt"
 viewBox="0.00 0.00 98.00 404.00" xmlns="http://www.w3.org/2000/svg" xmlns:xlink="http://www.w3.org/1999/xlink">
<g id="graph0" class="graph" transform="scale(1 1) rotate(0) translate(4 400)">
<title>%3</title>
<polygon fill="#333333" stroke="none" points="-4,4 -4,-400 94,-400 94,4 -4,4"/>
<!-- 0 -->
<g id="node1" class="node"><title>0</title>
<ellipse fill="#006699" stroke="white" cx="72" cy="-378" rx="18" ry="18"/>
<text text-anchor="middle" x="72" y="-374.3" font-family="Helvetica,sans-Serif" font-size="14.00" fill="white">0</text>
</g>
<!-- 1 -->
<g id="node2" class="node"><title>1</title>
<ellipse fill="#006699" stroke="white" cx="72" cy="-306" rx="18" ry="18"/>
<text text-anchor="middle" x="72" y="-302.3" font-family="Helvetica,sans-Serif" font-size="14.00" fill="white">1</text>
</g>
<!-- 0&#45;&#45;1 -->
<g id="edge1" class="edge"><title>0&#45;&#45;1</title>
<path fill="none" stroke="white" d="M72,-359.697C72,-348.846 72,-334.917 72,-324.104"/>
</g>
<!-- 3 -->
<g id="node4" class="node"><title>3</title>
<ellipse fill="#006699" stroke="white" cx="22" cy="-234" rx="18" ry="18"/>
<text text-anchor="middle" x="22" y="-230.3" font-family="Helvetica,sans-Serif" font-size="14.00" fill="white">3</text>
</g>
<!-- 1&#45;&#45;3 -->
<g id="edge2" class="edge"><title>1&#45;&#45;3</title>
<path fill="none" stroke="white" d="M61.8818,-290.834C53.207,-278.69 40.7736,-261.283 32.1032,-249.144"/>
</g>
<!-- 4 -->
<g id="node5" class="node"><title>4</title>
<ellipse fill="#006699" stroke="white" cx="72" cy="-162" rx="18" ry="18"/>
<text text-anchor="middle" x="72" y="-158.3" font-family="Helvetica,sans-Serif" font-size="14.00" fill="white">4</text>
</g>
<!-- 1&#45;&#45;4 -->
<g id="edge3" class="edge"><title>1&#45;&#45;4</title>
<path fill="none" stroke="white" d="M72,-287.871C72,-260.578 72,-207.52 72,-180.189"/>
</g>
<!-- 2 -->
<g id="node3" class="node"><title>2</title>
<ellipse fill="#006699" stroke="white" cx="18" cy="-306" rx="18" ry="18"/>
<text text-anchor="middle" x="18" y="-302.3" font-family="Helvetica,sans-Serif" font-size="14.00" fill="white">2</text>
</g>
<!-- 2&#45;&#45;3 -->
<g id="edge4" class="edge"><title>2&#45;&#45;3</title>
<path fill="none" stroke="white" d="M18.9888,-287.697C19.6088,-276.846 20.4048,-262.917 21.0226,-252.104"/>
</g>
<!-- 3&#45;&#45;4 -->
<g id="edge5" class="edge"><title>3&#45;&#45;4</title>
<path fill="none" stroke="white" d="M32.1182,-218.834C40.793,-206.69 53.2264,-189.283 61.8968,-177.144"/>
</g>
<!-- 5 -->
<g id="node6" class="node"><title>5</title>
<ellipse fill="#006699" stroke="white" cx="18" cy="-162" rx="18" ry="18"/>
<text text-anchor="middle" x="18" y="-158.3" font-family="Helvetica,sans-Serif" font-size="14.00" fill="white">5</text>
</g>
<!-- 3&#45;&#45;5 -->
<g id="edge6" class="edge"><title>3&#45;&#45;5</title>
<path fill="none" stroke="white" d="M21.0112,-215.697C20.3912,-204.846 19.5952,-190.917 18.9774,-180.104"/>
</g>
<!-- 6 -->
<g id="node7" class="node"><title>6</title>
<ellipse fill="#006699" stroke="white" cx="64" cy="-90" rx="18" ry="18"/>
<text text-anchor="middle" x="64" y="-86.3" font-family="Helvetica,sans-Serif" font-size="14.00" fill="white">6</text>
</g>
<!-- 4&#45;&#45;6 -->
<g id="edge7" class="edge"><title>4&#45;&#45;6</title>
<path fill="none" stroke="white" d="M70.0634,-144.055C68.8241,-133.211 67.2209,-119.183 65.9743,-108.275"/>
</g>
<!-- 5&#45;&#45;6 -->
<g id="edge8" class="edge"><title>5&#45;&#45;6</title>
<path fill="none" stroke="white" d="M27.5312,-146.496C35.426,-134.482 46.5896,-117.494 54.481,-105.485"/>
</g>
<!-- 7 -->
<g id="node8" class="node"><title>7</title>
<ellipse fill="#006699" stroke="white" cx="41" cy="-18" rx="18" ry="18"/>
<text text-anchor="middle" x="41" y="-14.3" font-family="Helvetica,sans-Serif" font-size="14.00" fill="white">7</text>
</g>
<!-- 5&#45;&#45;7 -->
<g id="edge9" class="edge"><title>5&#45;&#45;7</title>
<path fill="none" stroke="white" d="M20.7287,-144.153C25.1553,-116.824 33.8506,-63.14 38.2748,-35.825"/>
</g>
<!-- 6&#45;&#45;7 -->
<g id="edge10" class="edge"><title>6&#45;&#45;7</title>
<path fill="none" stroke="white" d="M58.6655,-72.7646C55.0029,-61.6175 50.1556,-46.865 46.4653,-35.6334"/>
</g>
</g>
</svg>
