<?xml version="1.0" encoding="UTF-8" standalone="no"?>
<!DOCTYPE svg PUBLIC "-//W3C//DTD SVG 1.1//EN"
 "http://www.w3.org/Graphics/SVG/1.1/DTD/svg11.dtd">
<!-- Generated by graphviz version 2.38.0 (20140413.2041)
 -->
<!-- Title: %3 Pages: 1 -->
<svg width="117pt" height="188pt"
 viewBox="0.00 0.00 117.00 188.00" xmlns="http://www.w3.org/2000/svg" xmlns:xlink="http://www.w3.org/1999/xlink">
<g id="graph0" class="graph" transform="scale(1 1) rotate(0) translate(4 184)">
<title>%3</title>
<polygon fill="#333333" stroke="none" points="-4,4 -4,-184 113,-184 113,4 -4,4"/>
<!-- 0 -->
<g id="node1" class="node"><title>0</title>
<ellipse fill="#006699" stroke="white" cx="18" cy="-162" rx="18" ry="18"/>
<text text-anchor="middle" x="18" y="-158.3" font-family="Helvetica,sans-Serif" font-size="14.00" fill="white">0</text>
</g>
<!-- 2 -->
<g id="node3" class="node"><title>2</title>
<ellipse fill="#006699" stroke="white" cx="55" cy="-90" rx="18" ry="18"/>
<text text-anchor="middle" x="55" y="-86.3" font-family="Helvetica,sans-Serif" font-size="14.00" fill="white">2</text>
</g>
<!-- 0&#45;&#45;2 -->
<g id="edge1" class="edge"><title>0&#45;&#45;2</title>
<path fill="none" stroke="white" d="M26.0284,-145.811C32.2346,-134.07 40.785,-117.893 46.9872,-106.159"/>
</g>
<!-- 4 -->
<g id="node5" class="node"><title>4</title>
<ellipse fill="#006699" stroke="white" cx="32" cy="-18" rx="18" ry="18"/>
<text text-anchor="middle" x="32" y="-14.3" font-family="Helvetica,sans-Serif" font-size="14.00" fill="white">4</text>
</g>
<!-- 0&#45;&#45;4 -->
<g id="edge2" class="edge"><title>0&#45;&#45;4</title>
<path fill="none" stroke="white" d="M19.6887,-143.871C22.3796,-116.578 27.6107,-63.5205 30.3053,-36.1893"/>
</g>
<!-- 1 -->
<g id="node2" class="node"><title>1</title>
<ellipse fill="#006699" stroke="white" cx="91" cy="-162" rx="18" ry="18"/>
<text text-anchor="middle" x="91" y="-158.3" font-family="Helvetica,sans-Serif" font-size="14.00" fill="white">1</text>
</g>
<!-- 1&#45;&#45;2 -->
<g id="edge3" class="edge"><title>1&#45;&#45;2</title>
<path fill="none" stroke="white" d="M83.0104,-145.465C77.0446,-133.865 68.9277,-118.082 62.9672,-106.492"/>
</g>
<!-- 1&#45;&#45;4 -->
<g id="edge4" class="edge"><title>1&#45;&#45;4</title>
<path fill="none" stroke="white" d="M92.449,-143.754C93.3005,-125.177 92.5835,-95.1665 82,-72 74.0102,-54.5109 57.8814,-39.1055 46.0953,-29.4751"/>
</g>
<!-- 3 -->
<g id="node4" class="node"><title>3</title>
<ellipse fill="#006699" stroke="white" cx="86" cy="-18" rx="18" ry="18"/>
<text text-anchor="middle" x="86" y="-14.3" font-family="Helvetica,sans-Serif" font-size="14.00" fill="white">3</text>
</g>
<!-- 2&#45;&#45;3 -->
<g id="edge5" class="edge"><title>2&#45;&#45;3</title>
<path fill="none" stroke="white" d="M62.0344,-73.1159C67.1077,-61.66 73.9265,-46.2627 78.9935,-34.8212"/>
</g>
<!-- 2&#45;&#45;4 -->
<g id="edge6" class="edge"><title>2&#45;&#45;4</title>
<path fill="none" stroke="white" d="M49.6655,-72.7646C46.0029,-61.6175 41.1556,-46.865 37.4653,-35.6334"/>
</g>
</g>
</svg>
